<?xml version="1.0" encoding="utf-8"?>
<!-- Generator: Adobe Illustrator 25.0.0, SVG Export Plug-In . SVG Version: 6.00 Build 0)  -->
<svg version="1.1" id="Layer_1" xmlns="http://www.w3.org/2000/svg" xmlns:xlink="http://www.w3.org/1999/xlink" x="0px" y="0px"
	 viewBox="0 0 37.3 25.2" style="enable-background:new 0 0 37.3 25.2;" xml:space="preserve">
<style type="text/css">
	.st0{fill:#58A279;}
</style>
<path id="email_dark" class="st0" d="M0,23V2.2c0,0,0-0.3,0.1-0.7L12.3,12L0.1,23.7C0.1,23.5,0,23.2,0,23z M1.6,0.1C1.8,0,2,0,2.2,0
	h32.9c0.2,0,0.4,0,0.6,0.1L23.5,10.6l-1.6,1.3l-3.2,2.6l-3.2-2.6l-1.6-1.3L1.6,0.1z M1.7,25.1l12.3-11.8l4.8,3.9l4.8-3.9l12.3,11.8
	c-0.2,0.1-0.4,0.1-0.6,0.1H2.2C2,25.2,1.8,25.2,1.7,25.1L1.7,25.1z M25.1,12L37.2,1.5c0.1,0.2,0.1,0.5,0.1,0.7V23
	c0,0.2,0,0.5-0.1,0.7L25.1,12z"/>
</svg>
