<?xml version="1.0" encoding="utf-8"?>
<!-- Generator: Adobe Illustrator 21.0.0, SVG Export Plug-In . SVG Version: 6.00 Build 0)  -->
<svg version="1.1" id="Layer_1" xmlns="http://www.w3.org/2000/svg" xmlns:xlink="http://www.w3.org/1999/xlink" x="0px" y="0px"
	 viewBox="0 0 250 250" style="enable-background:new 0 0 250 250;" xml:space="preserve">
<style type="text/css">
	.st0{fill:#D1EDE4;}
	.st1{fill:#FFFFFF;}
</style>
<g>
	<g>
		<g>
			<path class="st0" d="M88.3,52.9L25.4,75.8C14.8,79.7,9.3,91.3,13.2,102l24.5,67.3c3.9,10.6,15.5,16.1,26.1,12.2l62.8-22.8
				c10.6-3.9,16.2-15.6,12.3-26.2l-24.5-67.3C110.5,54.5,98.9,49.1,88.3,52.9z M124.1,113.2c3.1,8.2-1.2,17.5-9.5,20.5l-57.7,21
				c-8.4,3-17.5-1.3-20.5-9.6l-16-44c-3-8.4,1.3-17.5,9.6-20.5l57.6-21c8.4-3,17.5,1.3,20.5,9.6L124.1,113.2z"/>
		</g>
		<g>
			<path class="st0" d="M83.9,86.3c-2.6-1.1-5.5-1.1-8.7,0.1c-0.9,0.3-1.8,0.8-2.6,1.5c-0.8,0.7-1.5,1.4-2.2,2.2
				c-0.6,0.8-1.2,1.6-1.6,2.2s-0.8,1.4-1.2,2.1c-0.8-0.4-1.5-0.6-2.2-0.8c-0.7-0.2-1.7-0.5-2.7-0.7c-1-0.3-2-0.4-3.1-0.3
				c-1,0-2.1,0.2-3,0.6c-3.2,1.2-5.5,3-6.8,5.5c-1.3,2.5-1.2,5.4,0,8.6c0.4,1,1,1.9,1.7,2.8c0.7,0.9,1.5,1.6,2.2,2.2
				c0.7,0.6,1.4,1.1,2.2,1.6c0.8,0.5,1.5,0.9,1.8,1c0.3,0.1,0.6,0.3,0.8,0.4l18.6,8.3c0.3,0.1,0.7,0.2,1.2,0.1
				c0.3-0.1,0.6-0.4,0.8-0.8l9-18.2c2.1-4.6,2.6-8.6,1.4-11.8C88.3,89.6,86.5,87.4,83.9,86.3z"/>
		</g>
	</g>
	<path class="st0" d="M221.7,87.8l-65.5-13.5c-11.1-2.3-21.8,4.8-24.1,15.9l-14.4,70.1c-2.3,11.1,4.8,21.8,15.9,24.1l65.4,13.4
		c11.1,2.3,21.9-4.8,24.2-15.9l14.4-70.1C239.9,100.8,232.8,90.1,221.7,87.8z"/>
	<path class="st1" d="M220.7,157.9c-1.7,8.6-10.2,14.2-18.8,12.5L141.8,158c-8.7-1.8-14.2-10.3-12.5-18.9l9.4-45.8
		c1.8-8.7,10.3-14.2,18.9-12.5l60,12.3c8.7,1.8,14.2,10.3,12.5,18.9L220.7,157.9z"/>
	<g>
		<path class="st0" d="M200.6,113.9c-1.6-2.3-4.1-3.8-7.5-4.5c-0.9-0.2-1.9-0.3-3-0.1c-1,0.2-2,0.4-3.1,0.7
			c-0.9,0.4-1.9,0.7-2.5,1.1s-1.4,0.8-2.1,1.2c-0.5-0.7-1-1.3-1.4-1.9c-0.5-0.6-1.2-1.3-1.9-2c-0.7-0.8-1.5-1.4-2.5-1.9
			c-0.9-0.5-1.9-0.9-2.8-1.1c-3.4-0.7-6.3-0.3-8.6,1.1s-3.9,4-4.6,7.3c-0.2,1.1-0.2,2.1-0.1,3.3c0.1,1.1,0.4,2.2,0.7,3.1
			c0.3,0.9,0.6,1.7,1.1,2.5c0.4,0.8,0.8,1.5,1,1.8c0.2,0.3,0.4,0.6,0.5,0.7l11.5,16.8c0.2,0.3,0.5,0.6,1,0.7c0.4,0.1,0.7,0,1.1-0.3
			l17.2-10.8c4.2-2.8,6.7-5.9,7.4-9.3C202.6,119.1,202.2,116.2,200.6,113.9z"/>
	</g>
</g>
</svg>
