<?xml version="1.0" encoding="utf-8"?>
<!-- Generator: Adobe Illustrator 21.0.0, SVG Export Plug-In . SVG Version: 6.00 Build 0)  -->
<svg version="1.1" id="Layer_1" xmlns="http://www.w3.org/2000/svg" xmlns:xlink="http://www.w3.org/1999/xlink" x="0px" y="0px"
	 viewBox="0 0 250 250" style="enable-background:new 0 0 250 250;" xml:space="preserve">
<style type="text/css">
	.st0{fill:#E73B91;}
	.st1{fill:#FFFFFF;}
</style>
<circle class="st0" cx="125" cy="125" r="125"/>
<g>
	<path class="st1" d="M77.4,113.1c-2.4,0-4,1.6-4,4v15.9c0,2.4,1.6,4,4,4c2.4,0,4-1.6,4-4v-15.9C81.4,114.7,79.8,113.1,77.4,113.1z"
		/>
	<path class="st1" d="M93.3,105.2c-2.4,0-4,1.6-4,4v31.7c0,2.4,1.6,4,4,4c2.4,0,4-1.6,4-4v-31.7C97.2,106.8,95.6,105.2,93.3,105.2z"
		/>
	<path class="st1" d="M109.1,85.3c-2.4,0-4,1.6-4,4v71.4c0,2.4,1.6,4,4,4c2.4,0,4-1.6,4-4V89.3C113.1,86.9,111.5,85.3,109.1,85.3z"
		/>
	<path class="st1" d="M125,113.1c-2.4,0-4,1.6-4,4v15.9c0,2.4,1.6,4,4,4s4-1.6,4-4v-15.9C129,114.7,127.4,113.1,125,113.1z"/>
	<path class="st1" d="M140.9,97.2c-2.4,0-4,1.6-4,4v47.6c0,2.4,1.6,4,4,4s4-1.6,4-4v-47.6C144.8,98.8,143.2,97.2,140.9,97.2z"/>
	<path class="st1" d="M156.7,85.3c-2.4,0-4,1.6-4,4v71.4c0,2.4,1.6,4,4,4s4-1.6,4-4V89.3C160.7,86.9,159.1,85.3,156.7,85.3z"/>
	<path class="st1" d="M172.6,113.1c-2.4,0-4,1.6-4,4v15.9c0,2.4,1.6,4,4,4c2.4,0,4-1.6,4-4v-15.9C176.6,114.7,175,113.1,172.6,113.1
		z"/>
</g>
</svg>
