<?xml version="1.0" encoding="utf-8"?>
<!-- Generator: Adobe Illustrator 21.0.0, SVG Export Plug-In . SVG Version: 6.00 Build 0)  -->
<svg version="1.1" id="Layer_1" xmlns="http://www.w3.org/2000/svg" xmlns:xlink="http://www.w3.org/1999/xlink" x="0px" y="0px"
	 viewBox="0 0 300 300" style="enable-background:new 0 0 300 300;" xml:space="preserve">
<style type="text/css">
	.st0{fill:#FECD00;}
	.st1{clip-path:url(#SVGID_2_);fill:#FFA300;}
	.st2{fill:#707788;}
	.st3{fill:#555A66;}
	.st4{fill:#FDA201;}
	.st5{fill:#9095A9;}
	.st6{fill:#BDC2D1;}
	.st7{fill:#414952;}
	.st8{fill:#23272B;}
	.st9{fill:#FEFEFE;}
</style>
<circle class="st0" cx="150" cy="150" r="150"/>
<g>
	<defs>
		<circle id="SVGID_1_" cx="150" cy="150" r="150"/>
	</defs>
	<clipPath id="SVGID_2_">
		<use xlink:href="#SVGID_1_"  style="overflow:visible;"/>
	</clipPath>
	<polygon class="st1" points="246,95 326.9,175.9 306.5,288.8 141.2,319.4 49.7,221.2 	"/>
</g>
<g>
	<path class="st2" d="M150.4,234.8c-19.8,0-39.7,0.1-59.5,0.1c-6.7,0-13.4-0.1-20.1,0c-4.7,0.1-9.1-0.5-13.3-2.7
		c-7.2-4.8-10.1-11.5-10-20.1c0.2-33.4,0.1-66.8,0.1-100.1c0-10.5,6.4-18.5,16.3-20.6c1.6-0.3,3.3-0.4,4.9-0.4c13,0,26.1-0.1,39.1,0
		c2.1,0,3.1-0.6,3.8-2.6c1.5-4.5,3.2-9,4.8-13.4c2.5-6.8,7.6-10.5,14.9-10.6c6.3-0.1,12.6,0,19,0c0.7,0.4,1.1,1.1,1.1,1.9
		c0.1,3.2,0.5,6.5-0.3,9.7c-0.1,0.3-0.3,0.6-0.5,0.9c-1.1,0.9-2.5,0.9-3.9,0.9c-4.2,0-8.4,0-12.6,0c-1.9,0-3.1,0.7-3.7,2.6
		c-0.6,1.8-1.4,3.6-2,5.5c-0.3,0.9-0.8,1.8,0.1,2.7c1.6,0.9,3.3,1.1,5.1,1.1c4.6,0,9.1,0,13.7,0c1.1,0,2.4-0.2,3.3,0.7
		c1.6,4.3,1.1,8.7,0.4,13c-0.8,1.7-2.4,1.7-4,1.8c-15.5,1.1-28.9,7-39.7,18.1c-9.1,9.4-14.6,20.7-16.2,33.9
		c-2.3,18.8,3.3,35.1,16.1,48.7c9.7,10.3,21.9,16.2,36.1,17.9c2.5,0.3,5.6-0.6,7.6,2.1C151.7,229,152.6,232,150.4,234.8z"/>
	<path class="st3" d="M150.4,104c0-4.5,0-8.9,0-13.4c0.8-1.5,2.3-1.3,3.6-1.3c5.2-0.1,10.5,0,15.7-0.1c3.2,0,3.6-0.7,2.6-3.6
		c-0.2-0.6-0.6-1.2-0.8-1.9c-2.1-6.1-1.1-5.9-8.6-5.9c-3.1,0-6.2,0.1-9.3,0c-1.2,0-2.6,0.1-3.2-1.4c0-4,0-7.9,0-11.9
		c6.8,0,13.5-0.3,20.3-0.1c5.9,0.2,10,3.6,13,8.6c3.1,3.8,4.4,8.4,6,12.9c1.3,3.6,1.7,3.5,5.4,4c12.7,1.7,25.4,0.5,38.1,1.1
		c7.7,0.2,13.3,4,17.5,10.2c2.1,4.3,2.5,8.8,2.5,13.6c-0.1,33.1,0,66.2,0,99.2c0,12.1-8.3,20.9-20.2,21c-27.1,0.1-54.3,0-81.4,0
		c-0.4,0-0.8-0.1-1.2-0.1c0-3.1,0-6.2,0-9.3c0.1-0.1,0.2-0.3,0.2-0.4c2.4-1.6,5.3-0.8,7.9-1.2c14-2.2,26-8.1,35.5-18.5
		c10.1-11.1,15.6-24.2,15.9-39.3c0.4-15.4-4.6-28.9-14.5-40.4c-9.3-10.8-21.3-17.3-35.4-19.8c-2.2-0.4-4.4-0.7-6.7-0.6
		c-1,0-2,0-2.7-0.8C150.6,104.3,150.5,104.1,150.4,104z"/>
	<path class="st4" d="M233.3,91c-13.8,0-27.6,0.1-41.4,0.1c-1.3,0-1.9-0.4-2.4-1.6c-1.9-5.5-3.9-10.9-5.8-16.4
		c5.6,4.8,10.5,10.3,15.7,15.5c1.5,1.5,3,2.1,5.1,2.1c8.4-0.1,16.9,0,25.3,0C231,90.6,232.2,90.4,233.3,91z"/>
	<path class="st5" d="M150.4,225.5c-15.5-0.2-29.1-5.3-40.6-15.7c-14.7-13.3-21.5-30.1-19.9-49.6c2-23.9,14.5-41.2,36.5-51.2
		c7.6-3.5,15.7-5.1,24.1-5c0,0,0,0,0,0c1.1,0.9,1.2,2.1,1.3,3.4c0.1,4.8,0,9.7,0,14.5c0,2-0.6,3.6-2.6,4.4c-4.8,0.8-9.5,1.7-14,3.7
		c-11.8,5.3-19.1,14.3-21.8,26.7c-4.2,19.5,7.3,38.6,26.1,44.3c2.7,0.8,5.4,1.4,8.3,1.6c1.2,0.1,2.3,0.3,3.1,1.3
		c0.7,0.8,0.9,1.7,0.9,2.7c0.1,5.2,0.1,10.5,0,15.7C151.7,223.6,151.4,224.7,150.4,225.5L150.4,225.5z"/>
	<path class="st6" d="M72.8,220.3c-6.4,0-11.3-4.9-11.3-11.2c0-6.4,5.1-11.6,11.4-11.5c6.2,0.1,11.4,5.2,11.4,11.3
		C84.4,215.2,79.2,220.3,72.8,220.3z"/>
	<path class="st5" d="M150.4,76.4c5.9,0,11.8,0.2,17.8,0.1c1.7,0,2.7,0.5,3.2,2.2c0.9,2.9,2,5.7,2.9,8.5c1.1,3.2,1,3.4-2.6,3.4
		c-7.1,0-14.2,0-21.3,0.1c-7.1,0-14.2,0-21.3-0.1c-1.1,0-2.4,0.4-3.3-0.6c1.2-1.2,2.8-1.3,4.3-1.3c5.1,0,10.1,0.1,15.2,0
		c3.1-0.1,3.5-0.6,3.7-3.6c0.1-1.8,0-3.5,0.1-5.3c0-1.2,0.1-2.3,1.2-3.1C150.4,76.6,150.4,76.5,150.4,76.4z"/>
	<path class="st6" d="M150.4,76.7c0,3.5-0.1,7,0,10.4c0.1,2.1-0.5,3-2.8,2.9c-7.3-0.1-14.5-0.1-21.8-0.1c1.3-3.9,2.7-7.7,3.9-11.6
		c0.4-1.3,1.1-1.9,2.5-1.8C138.3,76.6,144.4,76.6,150.4,76.7z"/>
	<path class="st2" d="M150.4,225.5c0-6,0-12.1,0-18.1c0-1.2,0.1-2.4-0.6-3.4c0.1-0.3,0.3-0.5,0.5-0.7c1.7-1,3.6-0.5,5.4-0.8
		c17.1-2.7,30.2-15.5,32.4-32.5c3.1-23.7-14.4-42-35.2-43.2c-1-0.1-1.9-0.2-2.9-0.3c-0.9,0-1.6-0.2-2-1.1c1.9-0.4,2.5-1.6,2.4-3.6
		c-0.1-6,0-12,0-18c28.2-0.8,54.6,20.1,59.9,49.6c3.3,18.3-0.9,35.1-12.8,49.7c-10.6,13-24.3,19.9-40.7,22.1
		C154.7,225.7,152.5,225.5,150.4,225.5z"/>
	<path class="st5" d="M225.5,128.6c-4.8,0-9.5-0.1-14.3,0c-2.1,0.1-3-0.5-2.9-2.8c0.1-4.9,0.1-9.7,0-14.6c0-1.9,0.6-2.6,2.5-2.6
		c9.9,0.1,19.8,0.1,29.7,0c2.1,0,2.7,0.9,2.7,2.8c-0.1,4.9-0.1,9.7,0,14.6c0,1.9-0.7,2.5-2.6,2.5
		C235.6,128.5,230.5,128.6,225.5,128.6z"/>
	<path class="st7" d="M148,125.5c0.8,0,1.6,0.1,2.4,0.1c1.2,1,1.3,2.3,1.3,3.7c0.1,23.6,0.1,47.2,0,70.9c0,1.4,0,2.8-1.3,3.7
		c-0.2,0.1-0.4,0.1-0.7,0.2c-19.6-1.1-34.7-13.9-38-32.2C107.6,148.5,124.3,127.1,148,125.5z"/>
	<path class="st8" d="M150.4,203.9c0-26.1,0-52.2,0-78.3c17.4-1.1,34.8,12.8,38.5,30.7c4.6,22.7-10.1,44-32.9,47.4
		C154.1,204,152.3,203.8,150.4,203.9z"/>
	<path class="st9" d="M139.2,153.4c5.8,0,10.3,4.7,10.2,10.5c-0.1,5.6-4.8,10.2-10.4,10.1c-5.7-0.1-10.3-4.9-10.2-10.6
		C128.9,157.9,133.6,153.4,139.2,153.4z"/>
	<path class="st9" d="M137.1,145c0.1,4.1-3.1,7.5-7.2,7.5c-4.1,0.1-7.4-3.2-7.5-7.3c-0.1-4.1,3.2-7.4,7.3-7.5
		C133.8,137.7,137,140.8,137.1,145z"/>
</g>
</svg>
