<?xml version="1.0" encoding="utf-8"?>
<!-- Generator: Adobe Illustrator 21.0.0, SVG Export Plug-In . SVG Version: 6.00 Build 0)  -->
<svg version="1.1" id="Layer_1" xmlns="http://www.w3.org/2000/svg" xmlns:xlink="http://www.w3.org/1999/xlink" x="0px" y="0px"
	 viewBox="0 0 250 250" style="enable-background:new 0 0 250 250;" xml:space="preserve">
<style type="text/css">
	.st0{fill:#4AB194;}
	.st1{fill:#FFFFFF;}
</style>
<circle class="st0" cx="125" cy="125" r="125"/>
<g>
	<path class="st1" d="M149.7,160.7l-60.4-60.4c-3-3-3-8,0-11l0,0c3-3,8-3,11,0l60.4,60.4c3,3,3,8,0,11l0,0
		C157.7,163.7,152.7,163.7,149.7,160.7z"/>
	<path class="st1" d="M160.7,100.3l-60.4,60.4c-3,3-8,3-11,0l0,0c-3-3-3-8,0-11l60.4-60.4c3-3,8-3,11,0l0,0
		C163.7,92.3,163.7,97.3,160.7,100.3z"/>
</g>
</svg>
