<?xml version="1.0" encoding="utf-8"?>
<!-- Generator: Adobe Illustrator 21.0.0, SVG Export Plug-In . SVG Version: 6.00 Build 0)  -->
<svg version="1.1" id="Layer_1" xmlns="http://www.w3.org/2000/svg" xmlns:xlink="http://www.w3.org/1999/xlink" x="0px" y="0px"
	 viewBox="0 0 300 300" style="enable-background:new 0 0 300 300;" xml:space="preserve">
<style type="text/css">
	.st0{fill:url(#SVGID_1_);}
	.st1{fill:url(#SVGID_2_);}
	.st2{fill:url(#SVGID_3_);}
</style>
<linearGradient id="SVGID_1_" gradientUnits="userSpaceOnUse" x1="123.949" y1="2.2573" x2="176.051" y2="297.7427">
	<stop  offset="0" style="stop-color:#FFF1F4"/>
	<stop  offset="0.2882" style="stop-color:#FFEDF0"/>
	<stop  offset="0.585" style="stop-color:#FFE1E6"/>
	<stop  offset="0.8845" style="stop-color:#FFCCD5"/>
	<stop  offset="1" style="stop-color:#FFC2CC"/>
</linearGradient>
<path class="st0" d="M150,0C67.2,0,0,67.2,0,150s67.2,150,150,150s150-67.2,150-150S232.8,0,150,0z"/>
<g>
	<linearGradient id="SVGID_2_" gradientUnits="userSpaceOnUse" x1="150" y1="235.4887" x2="150" y2="74.5302">
		<stop  offset="0" style="stop-color:#FFA48D"/>
		<stop  offset="1" style="stop-color:#FD3C84"/>
	</linearGradient>
	<path class="st1" d="M149.8,231.2c-8.7,0-17.4,0-26.2,0c-4.2,0-6.8-3.5-5.7-7.4c0.7-2.5,2.8-4,5.6-4.1c6.4,0,12.9,0,19.3,0
		c1.1,0,1.4-0.2,1.4-1.4c-0.1-4.2-0.1-8.5,0-12.7c0-1-0.2-1.4-1.2-1.5c-22-3.2-38.7-18.6-43.8-40.3c-0.8-3.6-1.2-7.3-1.2-11
		c-0.1-3.4,2.3-5.8,5.5-5.9c3.2-0.2,5.7,2.1,5.9,5.5c0.3,6.6,1.7,12.9,4.6,18.9c7.5,15,25.6,24.2,42.1,21.3
		c14.3-2.5,24.5-10.4,30.8-23.5c2.5-5.3,3.4-10.9,3.6-16.7c0.2-3.8,3.3-6.1,7-5.4c2.6,0.5,4.5,2.8,4.4,5.6
		c-0.2,11.7-3.6,22.3-10.7,31.6c-6.5,8.5-14.9,14.4-25,17.8c-3,1-6,1.7-9.1,2c-1,0.1-1.4,0.4-1.4,1.5c0.1,4.2,0.1,8.5,0,12.7
		c0,1.2,0.4,1.4,1.4,1.4c6.5,0,13-0.1,19.5,0c4,0,6.6,3.7,5.4,7.5c-0.8,2.5-2.9,3.9-5.8,3.9c-8.4,0-16.7,0-25.1,0
		C150.7,231.2,150.3,231.2,149.8,231.2z"/>
	<g>
		<linearGradient id="SVGID_3_" gradientUnits="userSpaceOnUse" x1="150.0406" y1="235.4887" x2="150.0406" y2="74.5302">
			<stop  offset="0" style="stop-color:#FFA48D"/>
			<stop  offset="1" style="stop-color:#FD3C84"/>
		</linearGradient>
		<path class="st2" d="M181.9,128.5c0-10.1,0-18.4,0-26.7c0-4.5-0.7-8.8-2.3-13c-6.5-16.7-26.8-24.9-42.8-17.1
			c-12.4,6-18.6,16.2-18.7,29.9c-0.1,16.6,0,33.3,0,49.9c0,2.5,0.2,5,0.7,7.4c4.3,19.6,24.2,30.6,42.8,23.3
			c12.3-4.8,19.1-14.3,20.1-27.5C182.4,145.5,181.8,136.1,181.9,128.5z M161.1,155.8h-23.5c-2.5,0-4.5-2-4.5-4.5
			c0-2.5,2-4.5,4.5-4.5h23.5c2.5,0,4.5,2,4.5,4.5C165.6,153.8,163.6,155.8,161.1,155.8z M161.1,138.6h-23.5c-2.5,0-4.5-2-4.5-4.5
			c0-2.5,2-4.5,4.5-4.5h23.5c2.5,0,4.5,2,4.5,4.5C165.6,136.6,163.6,138.6,161.1,138.6z M165.6,116.9c0,2.5-2,4.5-4.5,4.5h-23.5
			c-2.5,0-4.5-2-4.5-4.5v0c0-2.5,2-4.5,4.5-4.5h23.5C163.6,112.3,165.6,114.4,165.6,116.9L165.6,116.9z M161.1,104.1h-23.5
			c-2.5,0-4.5-2-4.5-4.5s2-4.5,4.5-4.5h23.5c2.5,0,4.5,2,4.5,4.5S163.6,104.1,161.1,104.1z"/>
	</g>
</g>
</svg>
