<svg xmlns="http://www.w3.org/2000/svg" width="50" height="37.805" viewBox="0 0 50 37.805">
  <path id="add_video" d="M129.546,106.4a9.167,9.167,0,0,0-9.146,9.146v19.512a9.167,9.167,0,0,0,9.146,9.146h31.707a9.167,9.167,0,0,0,9.146-9.146V115.546a9.167,9.167,0,0,0-9.146-9.146Zm0,3.659h31.707a5.436,5.436,0,0,1,5.488,5.488v19.512a5.436,5.436,0,0,1-5.488,5.488H129.546a5.436,5.436,0,0,1-5.488-5.488V115.546a5.436,5.436,0,0,1,5.488-5.488Zm10.423,5.488a1.829,1.829,0,0,0-1.886,1.829v15.854h0a1.834,1.834,0,0,0,2.706,1.62l14.634-7.927h0a1.83,1.83,0,0,0,0-3.22l-14.634-7.927h0a1.826,1.826,0,0,0-.819-.228Zm1.772,4.916,8.956,4.84-8.956,4.859Z" transform="translate(-120.4 -106.4)" fill="#343c71"/>
</svg>
