<svg xmlns="http://www.w3.org/2000/svg" width="50" height="50" viewBox="0 0 50 50">
  <g id="add_photo" transform="translate(-81.199 -11.199)">
    <path id="Path_341" data-name="Path 341" d="M108.291,78.4H89.535A8.336,8.336,0,0,0,81.2,86.732v27.092a8.336,8.336,0,0,0,8.336,8.336h27.092a8.336,8.336,0,0,0,8.336-8.336V95.068a2.084,2.084,0,1,0-4.168,0v9.555l-6.862-6.862a2.084,2.084,0,0,0-2.949,0l-4.778,4.778-6.862-6.861a2.084,2.084,0,0,0-2.949,0L85.367,106.707V86.732a4.168,4.168,0,0,1,4.168-4.168h18.756a2.084,2.084,0,1,0,0-4.168ZM97.871,100.1l6.867,6.862a2.085,2.085,0,0,0,2.944,0l4.778-4.778,8.336,8.336v3.3a4.168,4.168,0,0,1-4.168,4.168H89.535a4.168,4.168,0,0,1-4.168-4.168v-1.219Z" transform="translate(0 -60.961)" fill="#343c71"/>
    <path id="Path_342" data-name="Path 342" d="M454.154,17.435H450V13.278a2.079,2.079,0,1,0-4.157,0v4.157h-4.157a2.079,2.079,0,0,0,0,4.157h4.157V25.75a2.079,2.079,0,0,0,4.157,0V21.592h4.157a2.079,2.079,0,1,0,0-4.157Z" transform="translate(-325.034)" fill="#343c71"/>
    <path id="Path_343" data-name="Path 343" d="M333.836,171.116A3.118,3.118,0,1,1,330.718,168a3.118,3.118,0,0,1,3.118,3.118" transform="translate(-223.477 -142.211)" fill="#343c71"/>
  </g>
</svg>
