<svg xmlns="http://www.w3.org/2000/svg" width="22.995" height="17.603" viewBox="0 0 22.995 17.603">
  <g id="back" transform="translate(-515.175 -358.017)">
    <g id="Path_1" data-name="Path 1">
      <path id="Path_404" data-name="Path 404" d="M538.17,367.05a1.5,1.5,0,0,1-1.5,1.5H520.29l4.51,4.51a1.491,1.491,0,0,1,0,2.12,1.5,1.5,0,0,1-2.12,0l-7.07-7.07a1.5,1.5,0,0,1-.32-.48.665.665,0,0,1-.06-.2,1.469,1.469,0,0,1,.38-1.44,1.157,1.157,0,0,1,.25-.2h.01a1.2,1.2,0,0,1,.2-.26l7.07-7.07a1.5,1.5,0,0,1,2.13,2.12l-4.98,4.97h16.38A1.5,1.5,0,0,1,538.17,367.05Z" fill="#343c71"/>
    </g>
  </g>
</svg>
