<?xml version="1.0" encoding="utf-8"?>
<!-- Generator: Adobe Illustrator 25.0.0, SVG Export Plug-In . SVG Version: 6.00 Build 0)  -->
<svg version="1.1" id="Layer_1" xmlns="http://www.w3.org/2000/svg" xmlns:xlink="http://www.w3.org/1999/xlink" x="0px" y="0px"
	 viewBox="0 0 23 17.6" style="enable-background:new 0 0 23 17.6;" xml:space="preserve">
<style type="text/css">
	.st0{fill:#FFFFFF;}
</style>
<g id="back" transform="translate(-515.175 -358.017)">
	<g id="Path_1">
		<path id="Path_404" class="st0" d="M538.2,367c0,0.8-0.7,1.5-1.5,1.5h-16.4l4.5,4.5c0.6,0.6,0.6,1.5,0,2.1c0,0,0,0,0,0
			c-0.6,0.6-1.5,0.6-2.1,0l-7.1-7.1c-0.1-0.1-0.2-0.3-0.3-0.5c0-0.1-0.1-0.1-0.1-0.2c-0.1-0.5,0-1.1,0.4-1.4
			c0.1-0.1,0.2-0.1,0.2-0.2h0c0.1-0.1,0.1-0.2,0.2-0.3l7.1-7.1c0.6-0.6,1.5-0.6,2.1,0s0.6,1.5,0,2.1l-5,5h16.4
			C537.5,365.5,538.2,366.2,538.2,367L538.2,367z"/>
	</g>
</g>
</svg>
