<svg xmlns="http://www.w3.org/2000/svg" width="23.005" height="23.003" viewBox="0 0 23.005 23.003">
  <g id="close" transform="translate(-514.667 -216.967)">
    <g id="Line_15" data-name="Line 15">
      <path id="Path_406" data-name="Path 406" d="M537.23,237.41a1.491,1.491,0,0,1,0,2.12,1.5,1.5,0,0,1-2.12,0l-8.94-8.94-8.94,8.94a1.5,1.5,0,0,1-2.12,0,1.491,1.491,0,0,1,0-2.12l8.94-8.94-8.94-8.94a1.5,1.5,0,0,1,2.12-2.12l8.94,8.94,8.94-8.94a1.5,1.5,0,0,1,2.12,2.12l-8.94,8.94Z" fill="#343c71"/>
    </g>
  </g>
</svg>
