<svg xmlns="http://www.w3.org/2000/svg" width="10" height="11.419" viewBox="0 0 10 11.419">
  <g id="delete" transform="translate(-171.144 -77.14)">
    <path id="Path_52" data-name="Path 52" d="M180.729,78.571H178.05v-.386a1.039,1.039,0,0,0-1.037-1.045h-1.627a1.039,1.039,0,0,0-1.037,1.045v.386h-2.807a.4.4,0,0,0,0,.8h.813v7.816a1.36,1.36,0,0,0,1.356,1.367H178.7a1.36,1.36,0,0,0,1.356-1.367V79.376h.686a.4.4,0,0,0,.4-.4.41.41,0,0,0-.415-.4Zm-5.582-.386a.246.246,0,0,1,.239-.241h1.643a.246.246,0,0,1,.239.241v.386h-2.121Zm4.115,9.006a.568.568,0,0,1-.558.563H173.7a.568.568,0,0,1-.558-.563V79.376h6.109v7.816Z" fill="#343c71"/>
    <path id="Path_53" data-name="Path 53" d="M277.265,204.427a.406.406,0,0,0,.41-.41V198.7a.41.41,0,0,0-.82,0v5.317A.406.406,0,0,0,277.265,204.427Z" transform="translate(-102.768 -117.818)" fill="#343c71"/>
    <path id="Path_54" data-name="Path 54" d="M400.7,204.427a.406.406,0,0,0,.41-.41V198.7a.41.41,0,0,0-.82,0v5.317A.417.417,0,0,0,400.7,204.427Z" transform="translate(-222.762 -117.818)" fill="#343c71"/>
    <path id="Path_55" data-name="Path 55" d="M338.415,204.427a.406.406,0,0,0,.41-.41V198.7a.41.41,0,0,0-.82,0v5.317A.406.406,0,0,0,338.415,204.427Z" transform="translate(-162.215 -117.818)" fill="#343c71"/>
  </g>
</svg>
