<svg xmlns="http://www.w3.org/2000/svg" width="22" height="24.222" viewBox="0 0 22 24.222">
  <g id="Home" transform="translate(-468.745 -311.379)">
    <g id="Path_390" data-name="Path 390">
      <path id="Path_399" data-name="Path 399" d="M487.522,335.6H471.967a3.226,3.226,0,0,1-3.222-3.223V320.156a1,1,0,0,1,.386-.789l10-7.778a1,1,0,0,1,1.227,0l10,7.778a1,1,0,0,1,.387.789v12.222A3.227,3.227,0,0,1,487.522,335.6Zm-16.777-14.955v11.732a1.224,1.224,0,0,0,1.222,1.223h15.555a1.225,1.225,0,0,0,1.223-1.223V320.646l-9-7Z" fill="#343c71"/>
    </g>
    <g id="Path_391" data-name="Path 391">
      <path id="Path_400" data-name="Path 400" d="M483.1,335.6a1,1,0,0,1-1-1v-10.19h-4.713V334.6a1,1,0,0,1-2,0v-11.19a1,1,0,0,1,1-1H483.1a1,1,0,0,1,1,1V334.6A1,1,0,0,1,483.1,335.6Z" fill="#343c71"/>
    </g>
  </g>
</svg>
