<?xml version="1.0" encoding="utf-8"?>
<!-- Generator: Adobe Illustrator 21.0.0, SVG Export Plug-In . SVG Version: 6.00 Build 0)  -->
<svg version="1.1" id="Layer_1" xmlns="http://www.w3.org/2000/svg" xmlns:xlink="http://www.w3.org/1999/xlink" x="0px" y="0px"
	 viewBox="0 0 250 250" style="enable-background:new 0 0 250 250;" xml:space="preserve">
<style type="text/css">
	.st0{fill:#4AB194;}
</style>
<g transform="matrix(1,0,0,1,-224,-80)">
	<g>
		<path class="st0" d="M401.9,213.3c34.3,16.8,59.5,49.5,66,88.4c0,0,0,0,0,0.1c1.1,6.9-0.9,13.9-5.5,19.2
			c-4.5,5.3-11.2,8.4-18.1,8.4c-20.9,0.1-172.3,0.1-190.6,0c-7,0-13.6-3.1-18.1-8.4c-4.5-5.3-6.5-12.3-5.5-19.2c0,0,0,0,0-0.1
			c6.5-39,31.6-71.6,66-88.4c14.1,12.4,32.7,19.9,52.9,19.9S387.8,225.7,401.9,213.3z M349,80.5c-35.5,0-64.3,28.8-64.3,64.3
			s28.8,64.3,64.3,64.3s64.3-28.8,64.3-64.3S384.5,80.5,349,80.5z"/>
	</g>
</g>
</svg>
