<?xml version="1.0" encoding="utf-8"?>
<!-- Generator: Adobe Illustrator 21.0.0, SVG Export Plug-In . SVG Version: 6.00 Build 0)  -->
<svg version="1.1" id="Layer_1" xmlns="http://www.w3.org/2000/svg" xmlns:xlink="http://www.w3.org/1999/xlink" x="0px" y="0px"
	 viewBox="0 0 300 300" style="enable-background:new 0 0 300 300;" xml:space="preserve">
<style type="text/css">
	.st0{fill:#58A279;}
</style>
<g>
	<path class="st0" d="M150,0C67.2,0,0,67.2,0,150s67.2,150,150,150s150-67.2,150-150S232.8,0,150,0z M215,164.2h-50.8V215
		c0,7.8-6.3,14.2-14.2,14.2c-7.8,0-14.2-6.3-14.2-14.2v-50.8H85c-7.8,0-14.2-6.3-14.2-14.2c0-3.9,1.6-7.5,4.2-10
		c2.6-2.6,6.1-4.2,10-4.2h50.8V85c0-7.8,6.3-14.2,14.2-14.2c3.9,0,7.4,1.6,10,4.2c2.6,2.6,4.2,6.1,4.2,10v50.8H215
		c7.8,0,14.2,6.3,14.2,14.2C229.2,157.8,222.8,164.2,215,164.2z"/>
</g>
</svg>
