<?xml version="1.0" encoding="utf-8"?>
<!-- Generator: Adobe Illustrator 21.0.0, SVG Export Plug-In . SVG Version: 6.00 Build 0)  -->
<svg version="1.1" id="Layer_1" xmlns="http://www.w3.org/2000/svg" xmlns:xlink="http://www.w3.org/1999/xlink" x="0px" y="0px"
	 viewBox="0 0 318 318" style="enable-background:new 0 0 318 318;" xml:space="preserve">
<style type="text/css">
	.st0{opacity:0.8;fill:#FFFFFF;}
	.st1{fill:#395196;}
</style>
<g>
	<path id="XMLID_21_" class="st0" d="M318,159C318,71.2,246.8,0,159,0C71.2,0,0,71.2,0,159c0,87.8,71.2,159,159,159
		C246.8,318,318,246.8,318,159z"/>
	<path id="XMLID_19_" class="st1" d="M173,121.3v-15.1c0-7.3,4.9-9,8.3-9c3.4,0,21.1,0,21.1,0V65l-29.1-0.1
		c-32.3,0-39.6,24.1-39.6,39.5v17h-18.7V159h18.8c0,42.7,0,94.2,0,94.2h37.7c0,0,0-52,0-94.2h28l3.4-37.7H173z"/>
</g>
</svg>
