<?xml version="1.0" encoding="utf-8"?>
<!-- Generator: Adobe Illustrator 21.0.0, SVG Export Plug-In . SVG Version: 6.00 Build 0)  -->
<svg version="1.1" id="Layer_1" xmlns="http://www.w3.org/2000/svg" xmlns:xlink="http://www.w3.org/1999/xlink" x="0px" y="0px"
	 viewBox="0 0 318 318" style="enable-background:new 0 0 318 318;" xml:space="preserve">
<style type="text/css">
	.st0{fill:#4285F4;}
	.st1{fill:#34A853;}
	.st2{fill:#FBBC05;}
	.st3{fill:#EB4335;}
</style>
<g>
	<path class="st0" d="M312.7,162.5c0-12.9-1-22.3-3.3-32.1H162.1v58.2h86.4c-1.7,14.5-11.1,36.2-32.1,50.9l-0.3,1.9l46.5,36.1
		l3.2,0.3C295.6,250.5,312.7,210.2,312.7,162.5"/>
	<path class="st1" d="M162.1,315.8c42.3,0,77.9-13.9,103.8-38l-49.5-38.3c-13.2,9.2-31,15.7-54.4,15.7c-41.5,0-76.7-27.4-89.2-65.2
		l-1.8,0.2l-48.4,37.5l-0.6,1.8C47.8,280.6,100.8,315.8,162.1,315.8"/>
	<path class="st2" d="M72.9,190c-3.3-9.8-5.2-20.2-5.2-31c0-10.8,1.9-21.3,5.1-31l-0.1-2.1l-49-38.1l-1.6,0.8
		C11.4,109.9,5.3,133.7,5.3,159s6.1,49.1,16.7,70.4L72.9,190"/>
	<path class="st3" d="M162.1,62.8c29.4,0,49.3,12.7,60.6,23.3L267,43C239.8,17.7,204.5,2.2,162.1,2.2c-61.3,0-114.3,35.2-140.1,86.4
		L72.8,128C85.5,90.2,120.7,62.8,162.1,62.8"/>
</g>
</svg>
