<svg xmlns="http://www.w3.org/2000/svg" width="141.209" height="141.208" viewBox="0 0 141.209 141.208">
  <g id="Group_1554" data-name="Group 1554" transform="translate(-81.199 -11.199)" opacity="0.1">
    <path id="Path_341" data-name="Path 341" d="M157.711,78.4h-52.97A23.543,23.543,0,0,0,81.2,101.939v76.512a23.541,23.541,0,0,0,23.542,23.542h76.512A23.543,23.543,0,0,0,204.8,178.451v-52.97a5.886,5.886,0,1,0-11.771,0v26.984l-19.379-19.379a5.885,5.885,0,0,0-8.328,0l-13.493,13.493L132.447,127.2a5.885,5.885,0,0,0-8.328,0L92.97,158.35V101.938a11.77,11.77,0,0,1,11.771-11.771h52.97a5.886,5.886,0,1,0,0-11.771Zm-29.428,61.3,19.393,19.379a5.887,5.887,0,0,0,8.313,0l13.493-13.493,23.543,23.543v9.328a11.77,11.77,0,0,1-11.771,11.771H104.742a11.77,11.77,0,0,1-11.771-11.771v-3.442Z" transform="translate(0 -49.586)" fill="#343c71"/>
    <path id="Path_342" data-name="Path 342" d="M480.7,28.81h-11.74V17.07a5.87,5.87,0,1,0-11.741,0V28.811H445.474a5.87,5.87,0,0,0,0,11.741h11.741V52.292a5.87,5.87,0,0,0,11.741,0V40.551H480.7a5.87,5.87,0,1,0,0-11.741Z" transform="translate(-264.16 0)" fill="#343c71"/>
    <path id="Path_343" data-name="Path 343" d="M345.211,176.8A8.806,8.806,0,1,1,336.405,168a8.806,8.806,0,0,1,8.806,8.806" transform="translate(-181.66 -115.601)" fill="#343c71"/>
  </g>
</svg>
