<?xml version="1.0" encoding="utf-8"?>
<!-- Generator: Adobe Illustrator 25.0.0, SVG Export Plug-In . SVG Version: 6.00 Build 0)  -->
<svg version="1.1" id="Layer_1" xmlns="http://www.w3.org/2000/svg" xmlns:xlink="http://www.w3.org/1999/xlink" x="0px" y="0px"
	 viewBox="0 0 267.9 291.7" style="enable-background:new 0 0 267.9 291.7;" xml:space="preserve">
<style type="text/css">
	.st0{fill:#4793FF;}
	.st1{fill:#525CDD;}
	.st2{fill:#FFD845;}
	.st3{fill:#FFB454;}
	.st4{fill:#454040;}
	.st5{fill:#2E2E2E;}
</style>
<g>
	<path class="st0" d="M253.6,288.7H14.4c-6.8,0-12.4-5.5-12.4-12.4v-261C2,8.5,7.5,3,14.4,3h239.2c6.8,0,12.4,5.5,12.4,12.4v261
		C266,283.2,260.4,288.7,253.6,288.7z"/>
	<g>
		<path class="st1" d="M253.6,3H130.7v110.8c6.1,0.5,11.9,2.3,17,5.1V64.6h0c0-0.2,0-0.3,0-0.5c0-6.2,4.8-11.3,11-11.6
			c0.2,0,0.4,0,0.6,0c1.1,0,2.2,0.2,3.2,0.5l1.3,0.5c0,0,0,0,0.1,0l28.1,9.9c4.9,1.4,8.5,5.9,8.5,11.2c0,6.4-5.2,11.6-11.6,11.6
			c-1.6,0-3.2-0.3-4.6-1c0,0,0,0,0,0l-13.9-4.9v76.6c0,0.2,0,0.4,0,0.6c-0.3,22.4-17.6,40.7-39.6,42.6v20.4h72.9
			c6.2,0,11.3,5,11.3,11.3v0c0,6.2-5,11.3-11.3,11.3h-72.9v45.8h122.9c6.8,0,12.4-5.5,12.4-12.4v-261C266,8.5,260.4,3,253.6,3z"/>
		<path class="st2" d="M127,113.6c-23.9,0-43.3,19.4-43.3,43.3c0,23.9,19.4,43.3,43.3,43.3c1.3,0,2.5-0.1,3.7-0.2v-86.3
			C129.5,113.7,128.2,113.6,127,113.6z"/>
		<path class="st3" d="M170.3,157.5c0-0.2,0-0.4,0-0.6V80.3l13.9,4.9c0,0,0,0,0,0c1.4,0.6,3,1,4.6,1c6.4,0,11.6-5.2,11.6-11.6
			c0-5.3-3.6-9.8-8.5-11.2l-28.1-9.9c0,0,0,0-0.1,0l-1.3-0.5c-1-0.3-2.1-0.5-3.2-0.5c-0.2,0-0.4,0-0.6,0c-6.1,0.3-11,5.4-11,11.6
			c0,0.2,0,0.3,0,0.5h0v54.3c-5.1-2.8-10.9-4.6-17-5.1V200C152.7,198.2,170,179.9,170.3,157.5z"/>
		<path class="st4" d="M58,220.5c-6.2,0-11.3,5-11.3,11.3v0c0,6.2,5,11.3,11.3,11.3h72.7v-22.5H58z"/>
		<path class="st5" d="M214.9,231.7L214.9,231.7c0-6.2-5-11.3-11.3-11.3h-72.9V243h72.9C209.8,243,214.9,238,214.9,231.7z"/>
	</g>
</g>
</svg>
