<svg xmlns="http://www.w3.org/2000/svg" width="20" height="13.636" viewBox="0 0 20 13.636">
  <path id="Contact_us" d="M104.511,112a.922.922,0,0,0-.909.909v11.818a.922.922,0,0,0,.909.909h18.182a.922.922,0,0,0,.909-.909V112.909a.922.922,0,0,0-.909-.909Zm1.5,1.364h15.185l-7.592,7.024Zm-1.044.888,4.695,4.339-4.695,4.695Zm17.273,0v9.034l-4.695-4.695Zm-11.577,5.27,2.479,2.294a.682.682,0,0,0,.923,0l2.479-2.294,4.751,4.751H105.91l4.751-4.751Z" transform="translate(-103.602 -112)" fill="#fff"/>
</svg>
