<svg xmlns="http://www.w3.org/2000/svg" width="20" height="19.73" viewBox="0 0 20 19.73">
  <path id="Invitation" d="M128.762,50.006a.786.786,0,0,0-.063-.1l-.04-.049h0a.833.833,0,0,0-.077-.079l-.023-.023L126.21,47.8v-.945a2.673,2.673,0,0,0-2.671-2.671h-1.7l-1.872-1.547a1.745,1.745,0,0,0-2.22,0l-1.872,1.547h-1.7a2.673,2.673,0,0,0-2.671,2.671V47.8l-2.35,1.944-.023.023a.819.819,0,0,0-.077.079l-.04.049h0a.8.8,0,0,0-.063.1c0,.014-.016.028-.023.042h0a.809.809,0,0,0-.07.328V59.3a2.673,2.673,0,0,0,2.671,2.671h14.658a2.673,2.673,0,0,0,2.671-2.671V50.368a.809.809,0,0,0-.07-.327c-.007-.016-.016-.035-.023-.035Zm-2.034.33-.518.386v-.815Zm-7.947-6.447a.116.116,0,0,1,.149,0l.355.3h-.859Zm-4.61,1.918h9.369a1.045,1.045,0,0,1,1.045,1.045v5.081l-5.659,4.22a.116.116,0,0,1-.139,0l-5.659-4.22V46.852a1.045,1.045,0,0,1,1.045-1.045Zm-2.671,4.1v.815l-.518-.386Zm14.684,10.425H111.526a1.045,1.045,0,0,1-1.045-1.045v-7.3l1.231.929a.812.812,0,0,0,.262.2l5.841,4.345a1.751,1.751,0,0,0,2.09,0l5.834-4.357a.809.809,0,0,0,.262-.2l1.231-.929V59.3a1.045,1.045,0,0,1-1.047,1.036Z" transform="translate(-108.855 -42.236)" fill="#fff"/>
</svg>
