<svg xmlns="http://www.w3.org/2000/svg" width="20" height="15" viewBox="0 0 20 15">
  <g id="Liveness_Detection" transform="translate(7.832 -157.5)">
    <path id="Path_39" data-name="Path 39" d="M-5.686,165.59a15.435,15.435,0,0,0,1.692,2.174,8.489,8.489,0,0,0,6.163,3.07,8.489,8.489,0,0,0,6.163-3.07,15.431,15.431,0,0,0,1.692-2.174c.136-.21.257-.408.361-.589-.1-.181-.226-.379-.361-.589a15.436,15.436,0,0,0-1.692-2.174,8.489,8.489,0,0,0-6.163-3.07,8.489,8.489,0,0,0-6.163,3.07,15.432,15.432,0,0,0-1.692,2.174c-.136.21-.257.408-.361.589.1.181.226.379.361.589Zm-2.057-.962a12.7,12.7,0,0,1,.657-1.121A17.073,17.073,0,0,1-5.21,161.1a10.086,10.086,0,0,1,7.379-3.6,10.085,10.085,0,0,1,7.379,3.6,17.072,17.072,0,0,1,1.876,2.409,12.7,12.7,0,0,1,.657,1.121.833.833,0,0,1,0,.746,12.705,12.705,0,0,1-.657,1.121A17.073,17.073,0,0,1,9.547,168.9a10.086,10.086,0,0,1-7.379,3.6,10.085,10.085,0,0,1-7.379-3.6,17.071,17.071,0,0,1-1.876-2.409,12.718,12.718,0,0,1-.657-1.121.833.833,0,0,1,0-.746Z" transform="translate(0)" fill="#fff" fill-rule="evenodd"/>
    <path id="Path_40" data-name="Path 40" d="M135.519,251.7a3.349,3.349,0,1,1,3.349-3.349A3.349,3.349,0,0,1,135.519,251.7Zm0-1.675a1.675,1.675,0,1,0-1.675-1.675A1.675,1.675,0,0,0,135.519,250.023Z" transform="translate(-133.351 -83.348)" fill="#fff" fill-rule="evenodd"/>
  </g>
</svg>
