<svg xmlns="http://www.w3.org/2000/svg" width="20" height="20.496" viewBox="0 0 20 20.496">
  <g id="logout" transform="translate(70 -650)">
    <g id="Group_31" data-name="Group 31" transform="translate(-70 650)">
      <path id="Path_27" data-name="Path 27" d="M199.507,127.763H187.952a2.1,2.1,0,0,1-2.1-2.1V113.574a2.1,2.1,0,0,1,2.1-2.1h11.555a1.051,1.051,0,0,0,0-2.1H187.952a4.2,4.2,0,0,0-4.2,4.2v12.087a4.2,4.2,0,0,0,4.2,4.2h11.555a1.051,1.051,0,0,0,0-2.1Z" transform="translate(-183.75 -109.37)" fill="#fff"/>
      <path id="Path_28" data-name="Path 28" d="M326.834,201.331l-3.926-3.942a1.055,1.055,0,0,0-1.491,1.492l2.124,2.14h-7.484a1.054,1.054,0,1,0,0,2.108h7.484l-2.14,2.14a1.06,1.06,0,1,0,1.507,1.492l3.937-3.937a1.054,1.054,0,0,0,0-1.491Z" transform="translate(-307.153 -191.826)" fill="#fff"/>
    </g>
  </g>
</svg>
