<svg xmlns="http://www.w3.org/2000/svg" width="20.05" height="23.226" viewBox="0 0 20.05 23.226">
  <g id="Privcy_policy" transform="translate(-129.058 -24.067)">
    <path id="Path_31" data-name="Path 31" d="M229.927,149.778a5.729,5.729,0,1,1,5.707-5.729A5.725,5.725,0,0,1,229.927,149.778Zm0-9.87a4.141,4.141,0,1,0,4.119,4.141A4.135,4.135,0,0,0,229.927,139.908Z" transform="translate(-90.844 -109.069)" fill="#fff"/>
    <path id="Path_32" data-name="Path 32" d="M288.846,219.11l-1.432-1.671,1.206-1.033.868,1.013,2.468-2.525,1.136,1.11-3.075,3.145a.907.907,0,0,1-1.171-.039Z" transform="translate(-151.171 -182.167)" fill="#fff"/>
    <path id="Path_33" data-name="Path 33" d="M138.314,47.1c-6.733-3.149-9.411-10.619-9.249-17.629a.793.793,0,0,1,.615-.754,3.964,3.964,0,0,0,3.372-3.858.8.8,0,0,1,.794-.8h10.476a.8.8,0,0,1,.794.8,3.9,3.9,0,0,0,3.322,3.849.793.793,0,0,1,.666.768c.125,6.92-2.922,14.124-9.211,17.559a1.515,1.515,0,0,1-1.579.066Zm.646-1.449a.192.192,0,0,0,.171-.008c1.976-1.079,8.321-5.346,8.389-15.52a5.5,5.5,0,0,1-3.945-4.475h-8.98a5.5,5.5,0,0,1-3.949,4.476c-.011,6.083,2.355,12.88,8.314,15.527h0Z" transform="translate(0)" fill="#fff"/>
  </g>
</svg>
