<svg xmlns="http://www.w3.org/2000/svg" width="20" height="18.905" viewBox="0 0 20 18.905">
  <path id="star" d="M158.438,103.019a.818.818,0,0,0,.641-.292.8.8,0,0,0,.171-.677l-1.221-5.882,4.481-4.05h0a.8.8,0,0,0,.073-1.11.817.817,0,0,0-.533-.284l-6.031-.671-2.506-5.467a.811.811,0,0,0-.438-.414.823.823,0,0,0-.606,0,.811.811,0,0,0-.438.414l-2.506,5.467-6.031.671a.817.817,0,0,0-.533.284.8.8,0,0,0,.073,1.11l4.481,4.05-1.221,5.882h0a.8.8,0,0,0,.108.591.82.82,0,0,0,1.093.272l5.276-2.968,5.276,2.968a.822.822,0,0,0,.389.106Zm-1.147-2.387-4.116-2.314h0a.822.822,0,0,0-.8,0l-4.116,2.314.953-4.588h0a.8.8,0,0,0-.248-.76l-3.5-3.157,4.706-.521a.814.814,0,0,0,.651-.468l1.956-4.269,1.956,4.269a.815.815,0,0,0,.651.468l4.706.521-3.5,3.157a.8.8,0,0,0-.248.76l.953,4.588Z" transform="translate(-142.772 -84.114)" fill="#fff"/>
</svg>
