<svg xmlns="http://www.w3.org/2000/svg" width="19.746" height="23.966" viewBox="0 0 19.746 23.966">
  <g id="terms" transform="translate(-146.717 -14)">
    <path id="Path_34" data-name="Path 34" d="M163.177,14h-13.2a3.269,3.269,0,0,0-3.259,3.259V32.877a3.269,3.269,0,0,0,3.259,3.259h.281a.252.252,0,0,0,.252-.273c-.017-.193-.017-.395-.017-.6s.013-.4.03-.594a.253.253,0,0,0-.252-.275h-.293a1.548,1.548,0,0,1-1.548-1.548V17.259a1.525,1.525,0,0,1,1.548-1.521h12.947a1.774,1.774,0,0,1,1.774,1.774V32.624a1.807,1.807,0,0,1-1.8,1.8h0a.252.252,0,0,0-.252.273c.017.193.017.395.017.6s0,.391-.008.577a.253.253,0,0,0,.253.265h.046a3.523,3.523,0,0,0,3.513-3.513V17.259A3.31,3.31,0,0,0,163.177,14Z" transform="translate(0)" fill="#fff"/>
    <path id="Path_35" data-name="Path 35" d="M248.5,105.84h-9.072a.869.869,0,0,0,0,1.739h9.045a.858.858,0,0,0,.869-.869.836.836,0,0,0-.842-.869Z" transform="translate(-87.387 -87.386)" fill="#fff"/>
    <path id="Path_36" data-name="Path 36" d="M248.5,193.76h-9.072a.869.869,0,0,0,0,1.739h9.045a.858.858,0,0,0,.869-.869.836.836,0,0,0-.842-.869Z" transform="translate(-87.387 -171.041)" fill="#fff"/>
    <path id="Path_37" data-name="Path 37" d="M248.5,281.68h-9.072a.869.869,0,0,0,0,1.739h9.045a.858.858,0,0,0,.869-.869.836.836,0,0,0-.842-.869Z" transform="translate(-87.387 -254.697)" fill="#fff"/>
    <path id="Path_38" data-name="Path 38" d="M286.953,406.286l-2.944,2.944a1.055,1.055,0,0,1-1.527,0l-1.454-1.454a1.054,1.054,0,0,1,1.49-1.49l.727.727,2.181-2.181a1.075,1.075,0,0,1,1.49,0,.946.946,0,0,1,.036,1.454Z" transform="translate(-127.512 -371.59)" fill="#fff"/>
  </g>
</svg>
