<?xml version="1.0" encoding="utf-8"?>
<!-- Generator: Adobe Illustrator 21.0.0, SVG Export Plug-In . SVG Version: 6.00 Build 0)  -->
<svg version="1.1" id="Layer_1" xmlns="http://www.w3.org/2000/svg" xmlns:xlink="http://www.w3.org/1999/xlink" x="0px" y="0px"
	 viewBox="0 0 300 300" style="enable-background:new 0 0 300 300;" xml:space="preserve">
<style type="text/css">
	.st0{fill:#FF1D1D;}
</style>
<path class="st0" d="M198.9,102.8l85,12.9c5.3,0.8,7.4,7.4,3.6,11.2l-61.9,59.6c-1.5,1.5-2.3,3.6-1.9,5.8l14,84.8
	c0.9,5.3-4.7,9.4-9.5,6.8l-75.8-40.4c-1.9-1-4.2-1-6.1,0l-76.3,39.5c-4.8,2.5-10.4-1.6-9.4-6.9l15-84.6c0.4-2.1-0.3-4.3-1.8-5.8
	l-61.2-60.3c-3.9-3.8-1.7-10.4,3.7-11.1l85.1-11.9c2.1-0.3,4-1.6,4.9-3.5l38.5-76.8c2.4-4.8,9.3-4.8,11.7,0.1L194,99.2
	C194.9,101.1,196.8,102.5,198.9,102.8z"/>
</svg>
