<?xml version="1.0" encoding="utf-8"?>
<!-- Generator: Adobe Illustrator 21.0.0, SVG Export Plug-In . SVG Version: 6.00 Build 0)  -->
<svg version="1.1" id="Layer_1" xmlns="http://www.w3.org/2000/svg" xmlns:xlink="http://www.w3.org/1999/xlink" x="0px" y="0px"
	 viewBox="0 0 250 250" style="enable-background:new 0 0 250 250;" xml:space="preserve">
<style type="text/css">
	.st0{fill:#4AB194;stroke:#FFFFFF;stroke-width:9;stroke-miterlimit:10;}
	.st1{fill:#4AB194;}
	.st2{fill:#FFFFFF;}
</style>
<path class="st0" d="M11.7,245.8"/>
<g>
	<path class="st1" d="M191.9,33.7c-28.5-13.2-65.8-0.8-79,27.7C99.8,33,62.5,20.5,34,33.7C3.6,47.8-10.9,83.8,13.1,126.2
		c15.8,28,43,49.7,89,85.3c6.4,5,15.4,5,21.8,0c46-35.6,73.1-57.3,89-85.3C236.8,83.8,222.3,47.8,191.9,33.7z"/>
	<g>
		<path class="st1" d="M229.1,132.6c-12.1-5.6-27.6-1.4-35,9.4c-1,1.4-3.2,1.4-4.1,0c-7.4-10.7-22.9-15-35-9.4
			c-14.3,6.6-21.1,23.5-9.8,43.4c7.2,12.9,19.6,22.8,40.2,38.8c3.9,3.1,9.5,3.1,13.4,0c20.6-16,33-26,40.2-38.8
			C250.2,156.1,243.4,139.2,229.1,132.6z"/>
		<path class="st2" d="M192,221.5c-3.3,0-6.6-1.1-9.4-3.2c-20.6-16-33.6-26.5-41.3-40.1c-7.8-13.7-6.8-24.6-4.7-31.2
			c2.6-8.1,8.4-14.6,16.5-18.3c13.2-6.1,29.8-2.2,38.9,8.9c9.1-11.1,25.7-15,38.9-8.9l0,0c8,3.7,13.9,10.2,16.5,18.3
			c2.1,6.7,3.1,17.5-4.7,31.2c-7.7,13.7-20.7,24.2-41.3,40.1C198.6,220.5,195.3,221.5,192,221.5z M166.4,134.5
			c-3.3,0-6.6,0.7-9.6,2.1c-5.8,2.7-10,7.3-11.9,13.1c-2.3,7.2-0.9,15.6,4,24.3c6.9,12.2,19.4,22.2,39.1,37.5c2.4,1.8,5.7,1.8,8.1,0
			c19.7-15.3,32.2-25.3,39.1-37.5c4.9-8.7,6.3-17.1,4-24.3c-1.8-5.7-6.1-10.4-11.9-13.1l0,0c-10.1-4.7-23.4-1.1-29.6,7.9
			c-1.3,1.8-3.4,2.9-5.6,2.9s-4.4-1.1-5.6-2.9C182,138.1,174.1,134.5,166.4,134.5z"/>
	</g>
</g>
</svg>
