<?xml version="1.0" encoding="utf-8"?>
<!-- Generator: Adobe Illustrator 21.0.0, SVG Export Plug-In . SVG Version: 6.00 Build 0)  -->
<svg version="1.1" id="Layer_1" xmlns="http://www.w3.org/2000/svg" xmlns:xlink="http://www.w3.org/1999/xlink" x="0px" y="0px"
	 viewBox="0 0 250 250" style="enable-background:new 0 0 250 250;" xml:space="preserve">
<style type="text/css">
	.st0{fill:#4AB194;stroke:#FFFFFF;stroke-width:9;stroke-miterlimit:10;}
	.st1{fill:#4AB194;}
</style>
<path class="st0" d="M11.7,245.8"/>
<path class="st1" d="M135.5,132.8c27,13.2,46.8,39,51.9,69.6c0,0,0,0,0,0.1c0.8,5.4-0.7,11-4.3,15.1c-3.6,4.2-8.8,6.6-14.3,6.6
	c-16.5,0.1-135.6,0.1-150.1,0c-5.5,0-10.7-2.4-14.3-6.6c-3.6-4.2-5.1-9.7-4.3-15.1c0,0,0,0,0-0.1c5.1-30.7,24.9-56.4,51.9-69.6
	c11.1,9.8,25.7,15.7,41.7,15.7S124.4,142.5,135.5,132.8z M93.8,25.8c-27.9,0-50.6,22.7-50.6,50.6S65.9,127,93.8,127
	s50.6-22.7,50.6-50.6S121.8,25.8,93.8,25.8z"/>
<path class="st1" d="M238.8,81.4c-9.7-4.5-22.5-0.3-27,9.5c-4.5-9.7-17.3-14-27-9.5c-10.4,4.8-15.3,17.1-7.1,31.6
	c5.4,9.6,14.7,17,30.4,29.2c2.2,1.7,5.3,1.7,7.5,0c15.7-12.2,25-19.6,30.4-29.2C254.1,98.5,249.1,86.2,238.8,81.4z"/>
</svg>
