<?xml version="1.0" encoding="utf-8"?>
<!-- Generator: Adobe Illustrator 21.0.0, SVG Export Plug-In . SVG Version: 6.00 Build 0)  -->
<svg version="1.1" id="Layer_1" xmlns="http://www.w3.org/2000/svg" xmlns:xlink="http://www.w3.org/1999/xlink" x="0px" y="0px"
	 viewBox="0 0 250 250" style="enable-background:new 0 0 250 250;" xml:space="preserve">
<style type="text/css">
	.st0{fill:#4AB194;stroke:#FFFFFF;stroke-width:9;stroke-miterlimit:10;}
	.st1{fill:#4AB194;}
</style>
<path class="st0" d="M11.7,245.8"/>
<g>
	<path class="st1" d="M130,8.7c-3-2.3-7.1-2.3-10.1,0l-34,26.7h78.1L130,8.7z"/>
	<polygon class="st1" points="214.5,75.1 214.5,92.2 227,84.9 	"/>
	<polygon class="st1" points="35.5,75.1 23,84.9 35.5,92.2 	"/>
	<path class="st1" d="M230.8,87.4L129.1,147c-2.5,1.5-5.7,1.5-8.2,0L19.2,87.4c-3.9-2.3-8.9-1-11.1,2.9C7.4,91.6,7,93,7,94.4v140.4
		c0,4.5,3.6,8.1,8.1,8.1h219.8c4.5,0,8.1-3.6,8.1-8.1V94.4c0-4.5-3.6-8.1-8.1-8.1C233.4,86.3,232,86.7,230.8,87.4z"/>
	<path class="st1" d="M202.3,39.5H47.7c-4.5,0-8.1,3.6-8.1,8.1v46.9l8.8,5.2V47.9h153.3v51.8l8.8-5.2V47.7
		C210.4,43.2,206.8,39.5,202.3,39.5z"/>
</g>
</svg>
