<?xml version="1.0" encoding="utf-8"?>
<!-- Generator: Adobe Illustrator 21.0.0, SVG Export Plug-In . SVG Version: 6.00 Build 0)  -->
<svg version="1.1" id="Layer_1" xmlns="http://www.w3.org/2000/svg" xmlns:xlink="http://www.w3.org/1999/xlink" x="0px" y="0px"
	 viewBox="0 0 133 250" style="enable-background:new 0 0 133 250;" xml:space="preserve">
<style type="text/css">
	.st0{fill:#231F20;}
</style>
<g>
	<path class="st0" d="M16.4,239.1c12.7-12.3,25.4-24.7,38.1-37c19.3-18.8,38.6-37.5,57.9-56.3c4-3.9,9.5-7.9,12.4-12.8
		c3.9-6.5,2.2-14.3-2.9-19.5c-1.7-1.7-3.4-3.3-5.1-5C98.5,90.9,80.4,73.2,62.3,55.6C47.2,41,32.5,25.9,17.1,11.7
		c-0.3-0.2-0.5-0.5-0.8-0.8c-5-4.8-12.5,2.8-7.6,7.6c31.4,30.6,62.9,61.2,94.3,91.7c3.8,3.7,8.2,7.2,11.6,11.3
		c4.4,5.3-3.9,10.8-7.4,14.1c-18.2,17.7-36.3,35.3-54.5,53c-14.7,14.3-29.3,28.5-44,42.8C3.8,236.3,11.4,243.9,16.4,239.1
		L16.4,239.1z"/>
</g>
</svg>
