<?xml version="1.0" encoding="utf-8"?>
<!-- Generator: Adobe Illustrator 21.0.0, SVG Export Plug-In . SVG Version: 6.00 Build 0)  -->
<svg version="1.1" id="Layer_1" xmlns="http://www.w3.org/2000/svg" xmlns:xlink="http://www.w3.org/1999/xlink" x="0px" y="0px"
	 viewBox="0 0 250 250" style="enable-background:new 0 0 250 250;" xml:space="preserve">
<style type="text/css">
	.st0{fill:#4AB194;stroke:#FFFFFF;stroke-width:9;stroke-miterlimit:10;}
	.st1{fill:#4AB194;}
</style>
<path class="st0" d="M11.7,245.8"/>
<g>
	<path class="st1" d="M31.7,27.1v70c0,58.9,28.8,114.1,77,147.9c9.8,6.8,22.8,6.8,32.6,0c48.2-33.8,77-89,77-147.9v-70
		c0-14.9-12.1-27.1-27.1-27.1l0,0H58.8C43.8,0,31.7,12.1,31.7,27.1z M89.8,97.6c3.3-3.3,8.6-3.3,12,0l9.6,10.1
		c1.3,1.3,3.4,1.3,4.7,0L154,72.9c3.4-3.2,8.8-3,12,0.4l0,0c3.2,3.4,3,8.8-0.4,12L115.2,132c-1.3,1.3-3.4,1.3-4.7,0l-21.1-22.2
		c-3.3-3.3-3.2-8.7,0.1-12C89.7,97.8,89.7,97.7,89.8,97.6z"/>
</g>
</svg>
