<svg xmlns="http://www.w3.org/2000/svg" xmlns:xlink="http://www.w3.org/1999/xlink" width="152" height="152" viewBox="0 0 152 152">
  <defs>
    <clipPath id="clip-path">
      <circle id="Ellipse_9" data-name="Ellipse 9" cx="76" cy="76" r="76" fill="#b5cfc5"/>
    </clipPath>
  </defs>
  <g id="logo" clip-path="url(#clip-path)">
    <g id="Group_40" data-name="Group 40" transform="translate(49.004 46.595)" opacity="0.66">
      <path id="Path_46" data-name="Path 46" d="M114.247,71.179a2.345,2.345,0,0,0-1.9-.568,50.338,50.338,0,0,0-14.83,3.906c-.373.162-.8.333-1.249.515-.909.367-1.923.776-2.871,1.249a21.89,21.89,0,0,0,3.388-7.694c.911-4.259.306-8.767-.226-12.744a.567.567,0,0,0-.85-.414c-6.3,3.7-9.652,11.784-8.185,18.9a15.658,15.658,0,0,0,.646,2.314A4.434,4.434,0,0,0,89.828,79c-.26.289-.54.579-.817.869a48.622,48.622,0,0,1-4.666,4.253c-1.227.989-2.507,1.954-3.776,2.9.038-.1.079-.2.128-.309.586-1.334,1.436-2.541,1.9-3.93a10.22,10.22,0,0,0-.58-7.138,30.453,30.453,0,0,0-3.9-6.175l-3.681-4.905c-1.078.46-1.486,1.769-1.612,2.935a20.354,20.354,0,0,0,1.117,8.25,42.205,42.205,0,0,0,4.236,9.306,13.886,13.886,0,0,0,1.4,2.145,3.406,3.406,0,0,0,.322.317l-.675.5a98.761,98.761,0,0,0-7.9,6.267,10.737,10.737,0,0,0,.221-2.793A10.923,10.923,0,0,0,69.8,86.025c-2.446-3.75-6.637-5.657-9.721-6.6a1.637,1.637,0,0,0-1.238.022c-.018.009-.035.01-.052.019-.375.222-.765.725-.489,1.862l1.587,6.507a18.493,18.493,0,0,0,1.27,3.905,11.884,11.884,0,0,0,5.447,4.948c.123.045.246.109.37.146a4.135,4.135,0,0,0,1.585.178,36.16,36.16,0,0,0-5.43,7.83,15.111,15.111,0,0,0-1.962,7,.566.566,0,0,0,.582.554.541.541,0,0,0,.144-.022.568.568,0,0,0,.411-.558,13.4,13.4,0,0,1,1.838-6.455,35.278,35.278,0,0,1,1.873-3.211,1.556,1.556,0,0,0-.008.532c.529,3.476,9.046-.476,10.349-1.6a.312.312,0,0,0,.125-.175c.026-.164-.186-.249-.35-.274-1.221-.179-7.429-.918-9.483.582a35.1,35.1,0,0,1,2.837-3.532,43.072,43.072,0,0,1,3.6-3.462,1.884,1.884,0,0,0,.1.524A2.831,2.831,0,0,0,74.3,96.137a14.9,14.9,0,0,0,7.689,2.337,27.728,27.728,0,0,0,5.04-.213c1.509-.184,3-.447,4.436-.722,1.635-.311,3.324-.655,4.98-1.132a24.054,24.054,0,0,0,3.631-1.343.976.976,0,0,0,.06-1.867,28.769,28.769,0,0,0-8.257-3.01,30.3,30.3,0,0,0-14.5.61c.841-.634,1.685-1.259,2.521-1.876,1.707-1.26,3.475-2.564,5.158-3.92A49.578,49.578,0,0,0,90,80.474a1.328,1.328,0,0,0,.072.143,1.721,1.721,0,0,0,1.027.757,3.578,3.578,0,0,0,1.756.025q2.272-.479,4.487-1.118A62.434,62.434,0,0,0,113.173,73.2c.362-.226.726-.447,1.084-.681a.567.567,0,0,0,.244-.351A1.094,1.094,0,0,0,114.247,71.179ZM67.3,95.748a10.424,10.424,0,0,1-5.124-4.512A17.535,17.535,0,0,1,61,87.569l-1.4-5.759a55.849,55.849,0,0,0,4.064,8.583A19.71,19.71,0,0,0,68,95.876,3.419,3.419,0,0,1,67.3,95.748Zm-3.4-5.5a55.584,55.584,0,0,1-4.475-9.73C62,81.921,64.149,84.408,66,88.11a21.419,21.419,0,0,1,1.54,4.986c.186.842.379,1.709.62,2.555A19.487,19.487,0,0,1,63.9,90.25Zm4.817,5.569a1.874,1.874,0,0,1-.194.049c-.28-.929-.5-1.895-.705-2.833a21.734,21.734,0,0,0-1.563-5.053,17.679,17.679,0,0,0-6.015-7.312,21.673,21.673,0,0,1,3.322,1.392.142.142,0,0,0,.037.107,19.416,19.416,0,0,1,5.394,13.358c0,.074.009.147.008.221A2.1,2.1,0,0,1,68.719,95.818Zm.569-.194c0-.156-.018-.311-.02-.468a19.744,19.744,0,0,0-5.043-12.73,16.122,16.122,0,0,1,1.589,1.049,12.5,12.5,0,0,1,3.039,3.169,9.748,9.748,0,0,1,1.554,4.882C70.491,93.636,70.073,95.167,69.288,95.625Zm30.051-1.567c.033.019.068.033.1.051l-.064.025a34.979,34.979,0,0,1-8.119,2.287,37.718,37.718,0,0,1-9.2.916,13.792,13.792,0,0,1-7.086-2.12c-.55-.4-.8-.783-.745-1.134a.916.916,0,0,1,.094-.269,5.072,5.072,0,0,0,3.631,1.716,74.991,74.991,0,0,0,11.211-.515,31.913,31.913,0,0,0,4.878-.952c1.178-.3,2.389-.6,3.7-.8C98.289,93.512,98.817,93.777,99.339,94.057Zm-2.068-1c-1.159.2-2.243.466-3.3.732a31.776,31.776,0,0,1-4.835.944,74.736,74.736,0,0,1-11.169.514,4.775,4.775,0,0,1-3.478-1.682,2.593,2.593,0,0,1,.3-.309,66.242,66.242,0,0,1,21.733-.511Q96.9,92.895,97.271,93.057ZM77.823,91.85A29.222,29.222,0,0,1,91.66,91.3a28.427,28.427,0,0,1,3.667,1,66.557,66.557,0,0,0-20,.567,7.174,7.174,0,0,1,1.572-.733Q77.358,91.985,77.823,91.85ZM96.694,76.085c.46-.186.895-.36,1.276-.527a49.7,49.7,0,0,1,6.018-2.167,48.811,48.811,0,0,1,8.478-1.653,1.68,1.68,0,0,1,.225-.008,10.775,10.775,0,0,1-1.286.652,26.99,26.99,0,0,1-3.473,1.154l-.306.086a125.216,125.216,0,0,0-16,5.711c-.179.077-.363.148-.541.226a2.375,2.375,0,0,1,.413-.618C92.562,77.751,94.853,76.827,96.694,76.085Zm-1.019-7.736a20.415,20.415,0,0,1-2.791,6.608c-.147.234-.274.469-.433.7,1.1-4.2,2.257-8.416,3.455-12.591.063-.221.123-.442.186-.661A23.526,23.526,0,0,1,95.676,68.349Zm-.331-11.333c.069-.05.136-.1.206-.147.2,1.546.395,3.11.5,4.674-.067.231-.13.463-.2.694-1.345,4.661-2.645,9.382-3.864,14.074q-.4.562-.848,1.121a36.147,36.147,0,0,0,1.237-5.877c.106-.688.21-1.361.323-2.009.243-1.384.621-2.765.987-4.1.252-.927.514-1.886.73-2.839.294-1.3.508-2.618.7-3.934Q95.235,57.84,95.345,57.016ZM89.237,76.249a17.055,17.055,0,0,1,2.986-16.327,30.361,30.361,0,0,0-2.183,5.589,25.063,25.063,0,0,0-.7,6.422,39.168,39.168,0,0,0,.41,5.4A5.63,5.63,0,0,1,89.237,76.249ZM90.57,78.1a1.65,1.65,0,0,1-.455-.319,38.857,38.857,0,0,1-.488-5.852,24.831,24.831,0,0,1,.687-6.35A34.023,34.023,0,0,1,92.942,59.1a15.547,15.547,0,0,1,1.424-1.322c.219-.181.433-.368.663-.537-.045.334-.1.674-.146,1.011-.2,1.433-.42,2.879-.741,4.292-.214.948-.476,1.9-.727,2.826-.367,1.343-.745,2.731-.992,4.127-.114.651-.218,1.327-.324,2.015a30.863,30.863,0,0,1-1.509,6.6A.064.064,0,0,1,90.57,78.1Zm21.775-5.734a61.358,61.358,0,0,1-19.723,7.917,1.84,1.84,0,0,1-1.452-.141.475.475,0,0,1-.113-.1.328.328,0,0,1-.03-.146c.105-.046.213-.088.317-.134A125.4,125.4,0,0,1,107.7,73.9l.306-.086a23,23,0,0,0,4.068-1.436,9.844,9.844,0,0,0,1.036-.581c.041.012.083.024.116.035C112.94,72.017,112.64,72.188,112.345,72.37Z" transform="translate(-58.211 -55.35)" fill="#b0834f" opacity="0.4"/>
      <path id="Path_47" data-name="Path 47" d="M109.972,67.656a2.429,2.429,0,0,0,.517-.215,3.341,3.341,0,0,0,1.555-2.661,2.776,2.776,0,0,0-.344-1.775,2.066,2.066,0,0,0-1.807-.908,3.674,3.674,0,0,0-2.914,1.374,2.833,2.833,0,0,0,.184,3.361A2.764,2.764,0,0,0,109.972,67.656ZM107.924,64.1a2.593,2.593,0,0,1,1.954-.868.992.992,0,0,1,.859.376,1.7,1.7,0,0,1,.176,1.065,2.281,2.281,0,0,1-.98,1.777,1.586,1.586,0,0,1-1.906-.356A1.726,1.726,0,0,1,107.924,64.1Z" transform="translate(-65.851 -56.417)" fill="#b0834f" opacity="0.4"/>
      <path id="Path_48" data-name="Path 48" d="M117.519,67.311a2.486,2.486,0,0,0-.415.852,2.309,2.309,0,0,0,1.285,2.579,2.567,2.567,0,0,0,1.78.11,2.763,2.763,0,0,0,1.013-.539,2.245,2.245,0,0,0,.611-.784,2.182,2.182,0,0,0-.214-2.059,2.545,2.545,0,0,0-2.035-1.283A2.446,2.446,0,0,0,117.519,67.311Zm.687,1.131a1.348,1.348,0,0,1,.229-.46,1.368,1.368,0,0,1,1.079-.658,1.457,1.457,0,0,1,1.113.768,1.054,1.054,0,0,1,.131.971,1.115,1.115,0,0,1-.309.383,1.553,1.553,0,0,1-1.587.265A1.178,1.178,0,0,1,118.206,68.442Z" transform="translate(-67.517 -57.064)" fill="#b0834f" opacity="0.4"/>
      <path id="Path_49" data-name="Path 49" d="M117.685,59.379a1.491,1.491,0,0,0,.91.066,1.14,1.14,0,0,0,.708-.9,2.437,2.437,0,0,0-.141-1.181c-.488-1.49-2.434-.327-2.476.848a1.1,1.1,0,0,0,.1.533A1.445,1.445,0,0,0,117.685,59.379Z" transform="translate(-67.46 -55.557)" fill="#b0834f" opacity="0.4"/>
    </g>
    <path id="AUTUMNWHISPERS" d="M30.031,80.279v-.354l-1.768-.707,1.556-3.771h5.634l1.2,2.829a3.325,3.325,0,0,0,1.155,1.45,3.372,3.372,0,0,0,2,.554h2.829v-.354l-1.179-.354L34.745,63.543h-.707L27.556,79.218l-1.886.707v.354Zm5.186-5.421H30.055l2.569-6.2Zm16.264,5.775a5.076,5.076,0,0,0,4.714-2.923,7.347,7.347,0,0,0,.707-3.324h0V64.839l1.886-.707v-.354H54.309v.354l1.886.707v9.546a6.965,6.965,0,0,1-.6,2.982,4.906,4.906,0,0,1-1.579,1.98,3.5,3.5,0,0,1-2.062.7,3.138,3.138,0,0,1-2.711-1.308,7.635,7.635,0,0,1-.943-4.349h0v-9.9l1.414-.354v-.354H43v.354l1.414.354v9.9A5.928,5.928,0,0,0,46.2,78.994,7.574,7.574,0,0,0,51.481,80.632Zm18.268-.354v-.354l-1.414-.354v-15.2h2.711a5.317,5.317,0,0,0,.754,2.758,3.315,3.315,0,0,0,.778.9h.707V63.779H59.495v4.243H60.2a3.546,3.546,0,0,0,.754-.9,5.354,5.354,0,0,0,.778-2.758h2.711v15.2l-1.414.354v.354Zm13.436.354A5.076,5.076,0,0,0,87.9,77.709a7.347,7.347,0,0,0,.707-3.324h0V64.839l1.886-.707v-.354H86.013v.354l1.886.707v9.546a6.965,6.965,0,0,1-.6,2.982,4.906,4.906,0,0,1-1.579,1.98,3.5,3.5,0,0,1-2.062.7,3.138,3.138,0,0,1-2.711-1.308A7.635,7.635,0,0,1,80,74.386h0v-9.9l1.414-.354v-.354H74.7v.354l1.414.354v9.9A5.928,5.928,0,0,0,77.9,78.994,7.574,7.574,0,0,0,83.184,80.632Zm18.621-.118,5.539-13.789V79.571l-1.414.354v.354h6.718v-.354l-1.414-.354V64.486l1.414-.354v-.354h-2.475a3.664,3.664,0,0,0-2.1.483,3.213,3.213,0,0,0-1.084,1.52h0l-3.936,9.829-5.139-9.829a4.131,4.131,0,0,0-1.237-1.5,3.319,3.319,0,0,0-1.945-.507H91.787v.354l1.414.354V79.218l-1.886.707v.354h4.479v-.354l-1.886-.707V66.725L101.1,80.514Zm26.989.118V64.839l1.886-.707v-.354H126.2v.354l1.886.707v9.428l-7.543-8.839a5.936,5.936,0,0,0-1.344-1.2,3.648,3.648,0,0,0-1.956-.448h-2.475v.354l1.65.471V79.218l-1.886.707v.354h4.479v-.354l-1.886-.707V67.786l10.961,12.846ZM23.608,108.295l3.654-10.772L31.5,108.295h.707l5.3-15.675,1.886-.707v-.354H35.04v.354l1.768.707-3.394,10.018-3.559-9.075a3.334,3.334,0,0,0-1.155-1.45,3.422,3.422,0,0,0-2.027-.554H23.843v.354l1.3.236,1.744,4.408-2.074,6.081-3.559-9.075a3.058,3.058,0,0,0-1.131-1.438,3.475,3.475,0,0,0-2.051-.566H15.24v.354l1.3.236L22.9,108.295Zm23.218-.236v-.354l-1.414-.354v-7.189h5.068v7.189l-1.414.354v.354h6.718v-.354l-1.414-.354V92.266l1.414-.354v-.354H49.065v.354l1.414.354v7.307H45.411V92.266l1.414-.354v-.354H40.108v.354l1.414.354v15.086l-1.414.354v.354Zm18.032,0v-.354l-1.414-.354V92.266l1.414-.354v-.354H58.14v.354l1.414.354v15.086l-1.414.354v.354Zm8.132.354a9.192,9.192,0,0,0,3.559-.613,4.878,4.878,0,0,0,2.192-1.662,3.968,3.968,0,0,0,.731-2.322,4.036,4.036,0,0,0-.636-2.251,6.08,6.08,0,0,0-1.556-1.638q-.919-.659-2.4-1.509-1.273-.73-2.015-1.249a5.227,5.227,0,0,1-1.249-1.214,2.6,2.6,0,0,1-.507-1.567,2.671,2.671,0,0,1,.66-1.862,2.059,2.059,0,0,1,1.579-.731,3.257,3.257,0,0,1,1.921.589,5.174,5.174,0,0,1,1.4,1.485,6.951,6.951,0,0,1,.919,2.051h.943V91.441h-.589q-.047.024-.471.33a4.334,4.334,0,0,0-.825.966,5.413,5.413,0,0,0-1.037-.754,5.487,5.487,0,0,0-2.734-.778,8.114,8.114,0,0,0-3.182.554,4.392,4.392,0,0,0-1.945,1.485A3.571,3.571,0,0,0,67.1,95.33a4.613,4.613,0,0,0,.684,2.534,6.508,6.508,0,0,0,1.65,1.78,25.246,25.246,0,0,0,2.522,1.579q1.226.707,1.909,1.179A4.888,4.888,0,0,1,75,103.486a2.259,2.259,0,0,1,.46,1.391,2.759,2.759,0,0,1-2.946,2.946,4.37,4.37,0,0,1-3.724-2.051,7.441,7.441,0,0,1-.99-2.074h-.943v4.479h.589c.019-.009.088-.056.206-.14l.165-.118h0l.1-.072a4,4,0,0,0,.825-.966,4.2,4.2,0,0,0,1.108.778A6.73,6.73,0,0,0,72.989,108.412Zm14.968-.354v-.354l-1.414-.354v-5.657h1.3q3.913,0,5.61-1.285a5.065,5.065,0,0,0,0-7.566q-1.7-1.284-5.61-1.285h-6.6v.354l1.414.354v15.086l-1.414.354v.354Zm-.118-6.953h-1.3V92.148h1.3a2.907,2.907,0,0,1,2.392,1.143,6.6,6.6,0,0,1,0,6.682,2.917,2.917,0,0,1-2.392,1.131Zm22.393,6.953v-4.243h-.707a3.328,3.328,0,0,0-.778.9,5.317,5.317,0,0,0-.754,2.758h-5.539v-7.307h2.711a5.221,5.221,0,0,0,.613,1.674,4.627,4.627,0,0,0,.448.684h.707v-5.3h-.707a4.672,4.672,0,0,0-.448.684,5.229,5.229,0,0,0-.613,1.674h-2.711V92.148h5.068a5.317,5.317,0,0,0,.754,2.758,3.315,3.315,0,0,0,.778.9h.707V91.559H97.15v.354l1.414.354v15.086l-1.414.354v.354Zm9.075,0v-.354l-1.65-.354v-6.6h1.532l2.357,5.3a2.963,2.963,0,0,0,2.829,2h3.3v-.354l-1.179-.354-2.121-4.714a3.389,3.389,0,0,0-2.239-1.862,6.125,6.125,0,0,0-1.532-.259h0V100.4a8.023,8.023,0,0,0,2.758-.519,4.7,4.7,0,0,0,2-1.355,3.511,3.511,0,0,0,.778-2.369,3.877,3.877,0,0,0-1.768-3.382q-1.768-1.213-5.775-1.214h-6.246v.354l1.414.354v15.086l-1.414.354v.354Zm-.707-7.9h-.943V92.148h.943a3.329,3.329,0,0,1,2.593,1.037,5.149,5.149,0,0,1,0,5.94,3.326,3.326,0,0,1-2.593,1.037Zm16.028,8.25a9.192,9.192,0,0,0,3.559-.613,4.878,4.878,0,0,0,2.192-1.662,3.968,3.968,0,0,0,.731-2.322,4.036,4.036,0,0,0-.636-2.251,6.08,6.08,0,0,0-1.556-1.638q-.919-.659-2.4-1.509-1.273-.73-2.015-1.249a5.227,5.227,0,0,1-1.249-1.214,2.6,2.6,0,0,1-.507-1.567,2.671,2.671,0,0,1,.66-1.862,2.059,2.059,0,0,1,1.579-.731,3.257,3.257,0,0,1,1.921.589,5.174,5.174,0,0,1,1.4,1.485,6.951,6.951,0,0,1,.919,2.051h.943V91.441h-.589q-.047.024-.471.33a4.334,4.334,0,0,0-.825.966,5.413,5.413,0,0,0-1.037-.754,5.487,5.487,0,0,0-2.734-.778,8.114,8.114,0,0,0-3.182.554,4.392,4.392,0,0,0-1.945,1.485,3.571,3.571,0,0,0-.648,2.086,4.613,4.613,0,0,0,.684,2.534,6.508,6.508,0,0,0,1.65,1.78,25.245,25.245,0,0,0,2.522,1.579q1.226.707,1.909,1.179a4.888,4.888,0,0,1,1.143,1.084,2.259,2.259,0,0,1,.46,1.391,2.759,2.759,0,0,1-2.946,2.946,4.37,4.37,0,0,1-3.724-2.051,7.441,7.441,0,0,1-.99-2.074H128.5v4.479h.589c.019-.009.088-.056.206-.14l.165-.118h0l.1-.072a4,4,0,0,0,.825-.966,4.2,4.2,0,0,0,1.108.778A6.73,6.73,0,0,0,134.628,108.412Z" transform="translate(-2.411 -10.051)" fill="#343c71"/>
    <path id="FORLOVEDONES" d="M53.588,138.6l1.218-1.694,1.727,1.242.394-.547L55.2,136.36l.742-1.032,1.989,1.431.391-.545-2.635-1.895-2.745,3.818Zm5.107,3.483a2.255,2.255,0,0,0,.9.3,1.907,1.907,0,0,0,.845-.109,2.273,2.273,0,0,0,.755-.476,3.3,3.3,0,0,0,.62-.8,3.254,3.254,0,0,0,.365-.94,2.22,2.22,0,0,0,.013-.883,1.927,1.927,0,0,0-.346-.774,2.478,2.478,0,0,0-1.612-.913,1.893,1.893,0,0,0-.839.1,2.173,2.173,0,0,0-.748.467,3.288,3.288,0,0,0-.616.8,3.326,3.326,0,0,0-.369.943,2.235,2.235,0,0,0-.019.892,1.922,1.922,0,0,0,.34.781A2.218,2.218,0,0,0,58.694,142.083Zm.329-.581a1.218,1.218,0,0,1-.413-.375,1.232,1.232,0,0,1-.2-.525,1.794,1.794,0,0,1,.029-.64,2.808,2.808,0,0,1,.752-1.329,1.712,1.712,0,0,1,.529-.345,1.225,1.225,0,0,1,.55-.088,1.288,1.288,0,0,1,.945.535,1.271,1.271,0,0,1,.21.518,1.707,1.707,0,0,1-.019.633,2.47,2.47,0,0,1-.281.716,2.5,2.5,0,0,1-.471.613,1.774,1.774,0,0,1-.538.353,1.285,1.285,0,0,1-.557.1A1.209,1.209,0,0,1,59.023,141.5Zm3.926,2.669L63.7,142.4l1.105.468a.813.813,0,0,1,.263.168.588.588,0,0,1,.136.2.5.5,0,0,1,.033.217.649.649,0,0,1-.049.206h0l-.279.657c-.015.035-.03.077-.046.123a1.177,1.177,0,0,0-.042.155,1.28,1.28,0,0,0-.024.177.824.824,0,0,0,.009.187h0l.8.338a2.04,2.04,0,0,1-.019-.392.885.885,0,0,1,.061-.3h0l.264-.624A1.3,1.3,0,0,0,66,143.7a1.038,1.038,0,0,0,.008-.289.884.884,0,0,0-.078-.28.758.758,0,0,0-.185-.247,1.4,1.4,0,0,0,.634-.242,1.123,1.123,0,0,0,.375-.472,1.32,1.32,0,0,0,.1-.5,1.335,1.335,0,0,0-.1-.522,1.514,1.514,0,0,0-.317-.476,1.619,1.619,0,0,0-.549-.364h0l-1.837-.778-1.834,4.33Zm2.117-1.922-1.105-.468.56-1.322,1.105.468a.719.719,0,0,1,.392.391.688.688,0,0,1,.049.27.779.779,0,0,1-.062.286.725.725,0,0,1-.166.244.679.679,0,0,1-.232.146.732.732,0,0,1-.268.044.722.722,0,0,1-.273-.059Zm7.509,5.19.168-.663-2.192-.556.989-3.894-.771-.2-1.157,4.557Zm3.527.743a2.234,2.234,0,0,0,.943-.049,1.9,1.9,0,0,0,.748-.408,2.269,2.269,0,0,0,.53-.717,3.294,3.294,0,0,0,.285-.972,3.235,3.235,0,0,0,0-1.009,2.208,2.208,0,0,0-.309-.828,1.914,1.914,0,0,0-.6-.6,2.482,2.482,0,0,0-1.834-.264,1.892,1.892,0,0,0-.745.4,2.186,2.186,0,0,0-.527.708,3.28,3.28,0,0,0-.284.967,3.344,3.344,0,0,0,0,1.013,2.24,2.24,0,0,0,.306.838,1.922,1.922,0,0,0,.6.6A2.213,2.213,0,0,0,76.1,148.182Zm.094-.661a1.226,1.226,0,0,1-.521-.2,1.247,1.247,0,0,1-.38-.416,1.787,1.787,0,0,1-.206-.606,2.79,2.79,0,0,1,.217-1.512,1.714,1.714,0,0,1,.366-.514,1.256,1.256,0,0,1,1.939.278,1.7,1.7,0,0,1,.212.6,2.479,2.479,0,0,1,0,.769,2.541,2.541,0,0,1-.216.742,1.772,1.772,0,0,1-.373.524,1.283,1.283,0,0,1-.485.292A1.21,1.21,0,0,1,76.2,147.521Zm5.826,1.106,1.732-4.647-.838-.028L81.642,147.4l-1.06-3.523-.845-.028,1.447,4.753Zm6.554-.193-.047-.683-2.63.182-.1-1.4,2.364-.163-.046-.673-2.364.163-.088-1.268,2.519-.174-.046-.668-3.313.229.325,4.691Zm3.622-.515a2,2,0,0,0,.8-.327,1.961,1.961,0,0,0,.561-.6,2.323,2.323,0,0,0,.289-.812,2.95,2.95,0,0,0-.32-1.821,2.257,2.257,0,0,0-.542-.659,1.956,1.956,0,0,0-.736-.378,2,2,0,0,0-.89-.026h0l-1.8.324.834,4.628Zm-.307-.64-.829.149-.594-3.294.829-.149a1.706,1.706,0,0,1,.6-.007,1.237,1.237,0,0,1,.519.216,1.419,1.419,0,0,1,.4.459,2.249,2.249,0,0,1,.246.723,2.088,2.088,0,0,1,.016.72,1.492,1.492,0,0,1-.212.569,1.3,1.3,0,0,1-.407.4,1.59,1.59,0,0,1-.564.213Zm8.267-1.294a2.243,2.243,0,0,0,.812-.483,1.908,1.908,0,0,0,.471-.71,2.245,2.245,0,0,0,.134-.881,3.294,3.294,0,0,0-.2-.993,3.228,3.228,0,0,0-.472-.891,2.21,2.21,0,0,0-.658-.588,1.925,1.925,0,0,0-.812-.245,2.485,2.485,0,0,0-1.745.621,1.89,1.89,0,0,0-.472.7,2.194,2.194,0,0,0-.136.871,3.32,3.32,0,0,0,.2.988,3.357,3.357,0,0,0,.472.9,2.225,2.225,0,0,0,.661.6,1.93,1.93,0,0,0,.813.253A2.207,2.207,0,0,0,100.16,145.985Zm-.225-.629a1.219,1.219,0,0,1-.554.067,1.243,1.243,0,0,1-.53-.19,1.793,1.793,0,0,1-.465-.44,2.56,2.56,0,0,1-.358-.685,2.493,2.493,0,0,1-.156-.753,1.687,1.687,0,0,1,.084-.625,1.227,1.227,0,0,1,.293-.473,1.287,1.287,0,0,1,1.022-.365,1.279,1.279,0,0,1,.53.18,1.669,1.669,0,0,1,.466.429,2.482,2.482,0,0,1,.358.681,2.524,2.524,0,0,1,.156.757,1.78,1.78,0,0,1-.086.637,1.269,1.269,0,0,1-.293.483A1.206,1.206,0,0,1,99.935,145.356Zm4.588-1.227-1.6-3.235,3.42,2.335.8-.4-2.086-4.213-.713.353,1.585,3.2-3.394-2.306-.812.4,2.086,4.213Zm7.294-4.1-.369-.576-2.22,1.422-.756-1.181,2-1.278-.364-.568-2,1.279-.685-1.07,2.126-1.362-.362-.565-2.8,1.791,2.536,3.96Zm2.786-1.906a2.618,2.618,0,0,0,.5-.515,1.67,1.67,0,0,0,.272-.563,1.249,1.249,0,0,0,.009-.583,1.406,1.406,0,0,0-.288-.576,1.039,1.039,0,0,0-.407-.325,1.2,1.2,0,0,0-.463-.092,1.932,1.932,0,0,0-.5.068q-.255.068-.507.158l-.491.179a2.686,2.686,0,0,1-.449.129,1.042,1.042,0,0,1-.384.008.484.484,0,0,1-.3-.184.512.512,0,0,1-.118-.27.6.6,0,0,1,.036-.27.9.9,0,0,1,.15-.253,1.574,1.574,0,0,1,.224-.219,1.019,1.019,0,0,1,.291-.165.792.792,0,0,1,.315-.046.848.848,0,0,1,.324.091,1.152,1.152,0,0,1,.32.245h0l.636-.506a2.556,2.556,0,0,0-.264-.246,1.645,1.645,0,0,0-.317-.2,1.471,1.471,0,0,0-.365-.12,1.259,1.259,0,0,0-.411-.009,1.635,1.635,0,0,0-.453.132,2.244,2.244,0,0,0-.489.306,2.558,2.558,0,0,0-.471.481,1.565,1.565,0,0,0-.259.519,1.122,1.122,0,0,0-.019.525,1.189,1.189,0,0,0,.247.5,1.069,1.069,0,0,0,.414.333,1.215,1.215,0,0,0,.468.1,1.818,1.818,0,0,0,.5-.067q.255-.069.505-.159t.488-.179a2.894,2.894,0,0,1,.445-.133,1.011,1.011,0,0,1,.381-.012.465.465,0,0,1,.29.178.745.745,0,0,1,.162.334.673.673,0,0,1-.021.32.9.9,0,0,1-.162.3,1.686,1.686,0,0,1-.263.262,1,1,0,0,1-.364.188.939.939,0,0,1-.387.022,1.149,1.149,0,0,1-.386-.135,1.421,1.421,0,0,1-.354-.285h0l-.636.506a1.75,1.75,0,0,0,.592.47,1.789,1.789,0,0,0,.673.173,1.832,1.832,0,0,0,.676-.09A1.927,1.927,0,0,0,114.6,138.118Z" transform="translate(-8.374 -21.17)" fill="#b0834f"/>
    <path id="Combined-Shape" d="M49.035,41.148l2.077,2.371a1.707,1.707,0,0,1,.379.674,1.664,1.664,0,0,1,.044.694,1.807,1.807,0,0,1-.236.654,2.224,2.224,0,0,1-.46.553,2.076,2.076,0,0,1-.584.363,1.7,1.7,0,0,1-.656.132,1.6,1.6,0,0,1-.668-.152,1.852,1.852,0,0,1-.623-.482L46.24,43.595l.609-.534,2.09,2.387a1.141,1.141,0,0,0,.357.283,1,1,0,0,0,.385.106.929.929,0,0,0,.375-.054,1.041,1.041,0,0,0,.33-.2,1.285,1.285,0,0,0,.263-.317,1.025,1.025,0,0,0,.136-.379.944.944,0,0,0-.027-.407,1.054,1.054,0,0,0-.231-.4l-2.1-2.4Zm69.9.253a1.606,1.606,0,0,1,.558.193,2.606,2.606,0,0,1,.55.412,2.286,2.286,0,0,1,.374.453,1.715,1.715,0,0,1,.194.439,1.327,1.327,0,0,1,.045.416,1.54,1.54,0,0,1-.073.385,1.686,1.686,0,0,1-.16.347,2.575,2.575,0,0,1-.213.3l-.6-.573a1.177,1.177,0,0,0,.2-.356.857.857,0,0,0,.049-.34.8.8,0,0,0-.089-.311,1.029,1.029,0,0,0-.205-.272,1.616,1.616,0,0,0-.251-.2.907.907,0,0,0-.275-.117.611.611,0,0,0-.279,0,.526.526,0,0,0-.257.155.494.494,0,0,0-.146.324,1.061,1.061,0,0,0,.059.386,2.864,2.864,0,0,0,.19.436q.122.23.248.471c.082.162.159.325.227.491a1.975,1.975,0,0,1,.136.493,1.2,1.2,0,0,1-.031.48,1.047,1.047,0,0,1-.273.455,1.431,1.431,0,0,1-.543.369,1.283,1.283,0,0,1-.59.068,1.71,1.71,0,0,1-.605-.2,2.694,2.694,0,0,1-.587-.437,1.969,1.969,0,0,1-.409-.566,1.878,1.878,0,0,1-.182-.67,1.837,1.837,0,0,1,.086-.7,1.767,1.767,0,0,1,.4-.66l.6.573a1.423,1.423,0,0,0-.241.4,1.149,1.149,0,0,0-.084.407.948.948,0,0,0,.074.388,1,1,0,0,0,.238.342,1.715,1.715,0,0,0,.3.232.955.955,0,0,0,.322.124.7.7,0,0,0,.327-.022.762.762,0,0,0,.316-.209.479.479,0,0,0,.141-.317,1.033,1.033,0,0,0-.063-.382,3,3,0,0,0-.194-.433c-.083-.152-.164-.308-.247-.469s-.158-.323-.228-.488a1.856,1.856,0,0,1-.134-.494,1.219,1.219,0,0,1,.037-.487,1.1,1.1,0,0,1,.281-.463,1.219,1.219,0,0,1,.476-.317A1.154,1.154,0,0,1,118.934,41.4Zm-4.9-3.811,2.756,1.961-.4.556-2.1-1.49-.75,1.055,1.967,1.4-.4.559-1.967-1.4L112.32,41.4l2.188,1.557-.4.568-2.849-2.026Zm-59.977-.175,2.719,3.943-.752.519-3.79-1.854L54.32,43.05l-.667.46-2.719-3.943.76-.524,3.76,1.829-2.067-3Zm55.6-2.43a2.071,2.071,0,0,1,.611.235,2.358,2.358,0,0,1,.631.506,2,2,0,0,1,.36.611,2.054,2.054,0,0,1,.121.684,2.978,2.978,0,0,1-.087.73l-.73-.418a1.656,1.656,0,0,0-.056-.912,1.259,1.259,0,0,0-.573-.618,1.11,1.11,0,0,0-.56-.152,1.409,1.409,0,0,0-.58.127,1.938,1.938,0,0,0-.542.366,2.425,2.425,0,0,0-.443.567,2.485,2.485,0,0,0-.29.738,1.733,1.733,0,0,0-.019.652,1.322,1.322,0,0,0,.216.533,1.269,1.269,0,0,0,.414.376,1,1,0,0,0,.46.129,1.548,1.548,0,0,0,.51-.067,1.808,1.808,0,0,0,.489-.237,1.619,1.619,0,0,0,.4-.383l-1.226-.7.338-.591,1.919,1.1L109.7,40.555l-.531-.3.2-.543a2.519,2.519,0,0,1-.4.083,2.324,2.324,0,0,1-.411.017,2.073,2.073,0,0,1-.4-.059,1.472,1.472,0,0,1-.364-.145,2.2,2.2,0,0,1-.712-.626,2.055,2.055,0,0,1-.351-.808,2.351,2.351,0,0,1,.006-.913,3.077,3.077,0,0,1,.359-.945,2.941,2.941,0,0,1,.367-.507,2.855,2.855,0,0,1,.461-.414,2.568,2.568,0,0,1,.533-.292,2.128,2.128,0,0,1,.582-.145A2.015,2.015,0,0,1,109.653,34.986Zm-52.832.625,2.37,4.162-.7.4-2.37-4.163Zm4.8-2.207a1.926,1.926,0,0,1,.844.185,2.255,2.255,0,0,1,.714.548,3.337,3.337,0,0,1,.546.87,3.225,3.225,0,0,1,.264.938,2.565,2.565,0,0,1-.044.875l.877.337-.258.655-.9-.341a1.844,1.844,0,0,1-.39.423,2.511,2.511,0,0,1-.554.33,2.264,2.264,0,0,1-.939.21,1.938,1.938,0,0,1-.845-.2,2.316,2.316,0,0,1-.717-.56,3.361,3.361,0,0,1-.549-.875,3.286,3.286,0,0,1-.276-.989,2.266,2.266,0,0,1,.072-.9,1.922,1.922,0,0,1,.428-.748,2.546,2.546,0,0,1,1.728-.764Zm42.27-1.1.863.355-.2,5.1-.785-.322.057-1.492-1.594-.656-.248.274h0l-.254.276q-.258.277-.5.551l-.774-.319ZM61.517,34.123a1.3,1.3,0,0,0-.558.114,1.26,1.26,0,0,0-.718.838,1.685,1.685,0,0,0-.039.642,2.88,2.88,0,0,0,.63,1.422,1.78,1.78,0,0,0,.505.413,1.309,1.309,0,0,0,.555.154,1.219,1.219,0,0,0,.556-.107,1.412,1.412,0,0,0,.286-.164,1.2,1.2,0,0,0,.231-.237l-.605-.232.251-.67.6.232a1.841,1.841,0,0,0-.018-.557,2.766,2.766,0,0,0-.2-.637,2.575,2.575,0,0,0-.413-.666,1.718,1.718,0,0,0-.5-.4A1.285,1.285,0,0,0,61.517,34.123Zm6.848-3.257.959,3a1.7,1.7,0,0,1,.078.769,1.666,1.666,0,0,1-.236.654,1.836,1.836,0,0,1-.476.506,2.265,2.265,0,0,1-.643.324,2.1,2.1,0,0,1-.679.1,1.7,1.7,0,0,1-.654-.141,1.615,1.615,0,0,1-.553-.406,1.846,1.846,0,0,1-.38-.69L64.826,32l.772-.247.966,3.022a1.144,1.144,0,0,0,.215.4,1,1,0,0,0,.311.251.92.92,0,0,0,.365.1,1.023,1.023,0,0,0,.38-.047,1.284,1.284,0,0,0,.368-.186A1.05,1.05,0,0,0,68.477,35a.966.966,0,0,0,.137-.384,1.044,1.044,0,0,0-.051-.461l-.971-3.039Zm29.7-.387a2.608,2.608,0,0,1,.679.107,2.321,2.321,0,0,1,.543.226,1.7,1.7,0,0,1,.377.3,1.318,1.318,0,0,1,.235.346,1.547,1.547,0,0,1,.115.374,1.664,1.664,0,0,1,.021.381,2.531,2.531,0,0,1-.048.365l-.795-.229a1.177,1.177,0,0,0,.013-.41.851.851,0,0,0-.116-.322.771.771,0,0,0-.224-.234,1.051,1.051,0,0,0-.309-.144,1.491,1.491,0,0,0-.314-.056.865.865,0,0,0-.3.025.609.609,0,0,0-.247.129.526.526,0,0,0-.154.258.491.491,0,0,0,.021.354,1.067,1.067,0,0,0,.234.314,2.832,2.832,0,0,0,.372.3q.215.145.439.3c.149.1.292.213.431.327a1.96,1.96,0,0,1,.35.372,1.224,1.224,0,0,1,.2.439,1.057,1.057,0,0,1-.029.53,1.447,1.447,0,0,1-.308.58,1.271,1.271,0,0,1-.489.336,1.691,1.691,0,0,1-.628.108,2.7,2.7,0,0,1-.723-.111,1.976,1.976,0,0,1-.626-.308,1.876,1.876,0,0,1-.474-.508,1.828,1.828,0,0,1-.253-.661,1.769,1.769,0,0,1,.04-.769l.8.228a1.426,1.426,0,0,0-.027.462,1.151,1.151,0,0,0,.115.4.948.948,0,0,0,.248.309,1.011,1.011,0,0,0,.37.19,1.714,1.714,0,0,0,.373.064.925.925,0,0,0,.342-.041.685.685,0,0,0,.278-.172.759.759,0,0,0,.182-.333.474.474,0,0,0-.024-.346,1.029,1.029,0,0,0-.235-.308,2.9,2.9,0,0,0-.374-.291c-.143-.1-.29-.2-.437-.3s-.291-.212-.43-.326a1.848,1.848,0,0,1-.35-.374,1.235,1.235,0,0,1-.194-.447,1.1,1.1,0,0,1,.032-.541,1.209,1.209,0,0,1,.273-.5,1.143,1.143,0,0,1,.447-.295A1.59,1.59,0,0,1,98.067,30.479Zm5.87,2.921-1.215,1.345,1.127.464ZM74.185,29.477l.129.671-2.525.487.244,1.271,2.371-.456.13.674-2.37.456.269,1.4,2.637-.508.132.684-3.432.661-.906-4.7Zm19.21-.2a2.331,2.331,0,0,1,.563.168,1.693,1.693,0,0,1,.406.258,1.273,1.273,0,0,1,.269.32,1.485,1.485,0,0,1,.154.36,1.7,1.7,0,0,1,.061.376,2.667,2.667,0,0,1-.01.369l-.814-.145a1.205,1.205,0,0,0-.029-.41.872.872,0,0,0-.149-.309.805.805,0,0,0-.247-.21,1.062,1.062,0,0,0-.322-.111,1.559,1.559,0,0,0-.318-.024.894.894,0,0,0-.295.056.608.608,0,0,0-.232.154.515.515,0,0,0-.126.272.487.487,0,0,0,.058.35,1.063,1.063,0,0,0,.264.288,2.841,2.841,0,0,0,.4.256q.23.122.467.254t.463.28a1.983,1.983,0,0,1,.387.334,1.222,1.222,0,0,1,.242.416,1.05,1.05,0,0,1,.026.53,1.429,1.429,0,0,1-.246.609,1.287,1.287,0,0,1-.452.386,1.713,1.713,0,0,1-.613.172,2.7,2.7,0,0,1-.732-.036A1.948,1.948,0,0,1,91.918,34a1.866,1.866,0,0,1-.524-.455,1.83,1.83,0,0,1-.32-.631,1.77,1.77,0,0,1-.04-.769l.815.145a1.444,1.444,0,0,0,.02.462,1.183,1.183,0,0,0,.157.386.971.971,0,0,0,.278.281,1.011,1.011,0,0,0,.388.151,1.7,1.7,0,0,0,.378.025.918.918,0,0,0,.336-.077.685.685,0,0,0,.258-.2.75.75,0,0,0,.146-.349.477.477,0,0,0-.059-.342,1.03,1.03,0,0,0-.266-.282,2.847,2.847,0,0,0-.4-.251c-.153-.081-.308-.165-.466-.253s-.311-.18-.461-.279a1.831,1.831,0,0,1-.386-.336,1.233,1.233,0,0,1-.241-.424,1.108,1.108,0,0,1-.024-.541,1.225,1.225,0,0,1,.219-.528,1.149,1.149,0,0,1,.414-.34,1.61,1.61,0,0,1,.572-.151A2.6,2.6,0,0,1,93.394,29.28Zm-7.3-.737,3.375.224-.045.681-2.567-.169-.085,1.291,2.408.159-.045.685-2.408-.159-.094,1.425,2.68.178-.046.7-3.488-.231Zm-2.4.036.162,4.787-.81.027-.107-3.157-.994,3.195-.687.023-1.229-3.133.107,3.171-.813.028-.162-4.787.916-.031,1.466,3.706,1.239-3.8Z" transform="translate(-7.314 -4.515)" fill="#b0834f" fill-rule="evenodd"/>
  </g>
</svg>
